<?xml version="1.0" encoding="utf-8"?>
<!-- Generator: Adobe Illustrator 27.2.0, SVG Export Plug-In . SVG Version: 6.00 Build 0)  -->
<svg version="1.1" id="Layer_1" xmlns="http://www.w3.org/2000/svg" xmlns:xlink="http://www.w3.org/1999/xlink" x="0px" y="0px"
	 viewBox="0 0 157 44.7" style="enable-background:new 0 0 157 44.7;" xml:space="preserve">
<style type="text/css">
	.st0{fill:#3F853F;}
	.st1{fill:#194885;}
	.st2{fill:#5DB746;}
</style>
<g id="ArtisanOutdoor-LG-RGB" transform="translate(-20.504 -37.062)">
	<g id="Group_1143">
		<g id="Group_1139">
			<g id="Group_1137">
				<path id="Path_619" class="st0" d="M45.9,64.9c-0.3,0-0.7-0.1-1-0.2c-0.3-0.1-0.6-0.3-0.9-0.5c-0.4-0.3-0.7-0.7-0.9-1.1
					c-0.1-0.2-0.2-0.2-0.3-0.2c0,0-0.1,0-0.1,0c-0.1,0-0.3,0-0.3,0.1c0,0,0,0,0,0c-0.2,0.6-0.6,1-1.2,1.3c-0.3,0.2-0.7,0.4-1.1,0.5
					c-0.2,0-0.3,0-0.5,0.1c-0.2-0.3-0.3-0.7-0.3-1c0-0.3,0-0.7,0-1c0-0.5,0.2-0.9,0.5-1.3c0.1-0.2,0.1-0.2,0-0.4c0,0,0-0.1-0.1-0.1
					c0-0.1-0.2-0.2-0.3-0.2c-0.6,0.1-1.1,0-1.6-0.3c-0.2-0.1-0.4-0.2-0.6-0.4c-0.3-0.2-0.6-0.5-0.8-0.8c0.2-0.3,0.4-0.5,0.6-0.7
					c0.4-0.3,0.9-0.6,1.4-0.8c0.3-0.1,0.7-0.1,1,0c0.1,0,0.3,0,0.3-0.2c0,0,0,0,0,0c0,0,0-0.1,0.1-0.1c0.1-0.1,0.1-0.2,0-0.3
					c0,0,0,0,0,0c-0.3-0.3-0.4-0.7-0.5-1.1c-0.1-0.8,0-1.5,0.3-2.2c0.2,0,0.4,0,0.6,0.1c0.5,0.2,1.1,0.4,1.5,0.8
					c0.3,0.2,0.5,0.5,0.7,0.9c0.1,0.3,0.1,0.3,0.4,0.2c0,0,0.1,0,0.1,0c0.1,0,0.3,0,0.3-0.1c0,0,0,0,0,0c0.2-0.6,0.6-1.1,1.2-1.3
					c0.4-0.2,0.7-0.4,1.1-0.5c0.2,0,0.3,0,0.5-0.1c0.1,0.3,0.2,0.6,0.3,0.9c0.1,0.4,0.1,0.9,0,1.3c0,0.4-0.2,0.8-0.5,1.2
					c-0.1,0.2-0.1,0.3,0,0.4c0,0,0,0.1,0.1,0.1c0,0.1,0.2,0.2,0.3,0.2c0.6-0.1,1.1,0,1.6,0.3c0.2,0.1,0.5,0.3,0.7,0.4
					c0.3,0.2,0.6,0.5,0.7,0.8c-0.1,0.1-0.2,0.3-0.3,0.4c-0.5,0.5-1,0.8-1.7,1c-0.3,0.1-0.7,0.1-1,0.1c-0.1,0-0.3,0-0.3,0.2
					c0,0,0,0,0,0c0,0,0,0.1-0.1,0.1c-0.1,0.1-0.1,0.3,0,0.4c0,0,0,0,0,0c0.3,0.3,0.5,0.7,0.5,1.2c0,0.4,0,0.8,0,1.2
					C46.2,64.3,46.1,64.6,45.9,64.9 M43.3,61.9c0.2,0,0.4,0,0.5-0.1c0.2,0,0.3-0.1,0.4-0.2c0.3-0.3,0.4-0.6,0.5-0.9c0,0,0-0.1,0-0.1
					c0.2-0.2,0.4-0.5,0.5-0.9c0.1-0.2,0.1-0.4,0-0.5c-0.1-0.4-0.3-0.7-0.5-0.9c0,0-0.1-0.1-0.1-0.1c-0.1-0.3-0.3-0.7-0.5-0.9
					c-0.1-0.1-0.2-0.2-0.4-0.3c-0.4-0.1-0.7-0.1-1.1,0c0,0-0.1,0-0.1,0c-0.3-0.1-0.7-0.1-1,0c-0.2,0-0.3,0.1-0.4,0.2
					c-0.3,0.2-0.5,0.6-0.6,0.9c0,0,0,0.1-0.1,0.1c-0.2,0.2-0.4,0.5-0.5,0.9c-0.1,0.2-0.1,0.4,0,0.5c0.1,0.3,0.3,0.7,0.5,0.9
					c0,0,0.1,0.1,0.1,0.1c0.1,0.3,0.3,0.7,0.5,0.9c0.1,0.1,0.2,0.2,0.4,0.2c0.3,0.1,0.6,0.1,1,0.1c0.1,0,0.3,0,0.5,0
					C43.1,61.9,43.2,61.9,43.3,61.9L43.3,61.9z"/>
				<path id="Path_620" class="st0" d="M33.9,63.4c0,0.2,0,0.4,0,0.6c0,0.1,0,0.2,0,0.2c0.1,0.2,0.2,0.3,0.3,0.5
					c0.1,0.1,0.1,0.1,0.2,0.2c0.1,0,0.2,0.1,0.3,0.1s0.2,0.1,0.2,0.1c-0.7,1.5-1,3.1-0.8,4.7c-0.1,0-0.1,0-0.2,0
					c-0.7,0.1-1.5,0.1-2.2-0.1c-1.3-0.3-2.6-0.8-3.7-1.6c-0.1-0.1-0.2-0.2-0.2-0.3c0-0.4,0-0.7,0-1.1c0-0.4,0-0.7,0.1-1.1
					c0.2-1.3,0.6-2.6,1.4-3.7c0,0,0.1-0.1,0.1-0.1c0,0,0,0,0,0C30.7,62.7,32.3,63.3,33.9,63.4"/>
				<path id="Path_621" class="st0" d="M34,49c-0.2,1.6,0.1,3.3,0.8,4.7c0,0-0.1,0-0.1,0.1c-0.2,0.1-0.3,0.2-0.5,0.2
					c-0.1,0.1-0.2,0.2-0.2,0.3c0,0,0,0.1-0.1,0.1c-0.1,0.1-0.1,0.2-0.1,0.3c0,0.2,0,0.3,0,0.5c0,0,0,0.1,0,0.2
					c-1.6,0.1-3.2,0.7-4.5,1.6c-0.1-0.1-0.1-0.2-0.2-0.2c-0.4-0.6-0.7-1.2-1-1.9c-0.3-0.8-0.4-1.6-0.4-2.5c0-0.4,0-0.8,0-1.2
					c0-0.1,0-0.2,0-0.2c0-0.2,0.1-0.3,0.2-0.4c0.9-0.7,1.9-1.1,3-1.4c0.9-0.2,1.8-0.3,2.7-0.2L34,49"/>
				<path id="Path_622" class="st0" d="M43.7,49.8c-0.2-0.1-0.3-0.2-0.5-0.3c-0.1-0.1-0.3-0.1-0.5-0.1c0,0-0.1,0-0.1,0
					c-0.1,0-0.3,0-0.4,0.1c-0.1,0.1-0.2,0.2-0.4,0.2l-0.2,0.1c-0.4-0.7-1-1.3-1.6-1.8c-0.6-0.5-1.3-1-2.1-1.3c0-0.1,0.1-0.2,0.1-0.2
					c0.7-1.5,1.8-2.7,3.1-3.5c0.4-0.2,0.8-0.5,1.2-0.7c0.1-0.1,0.3-0.1,0.4,0c1,0.4,1.9,1,2.7,1.8c0.7,0.7,1.3,1.5,1.7,2.4
					c0,0.1,0.1,0.1,0.1,0.2c0,0,0,0,0,0.1c-0.7,0.3-1.4,0.7-2,1.3C44.7,48.5,44.2,49.1,43.7,49.8"/>
				<path id="Path_623" class="st0" d="M51.5,69.8c0.2-1.6-0.1-3.3-0.8-4.7c0.1,0,0.1-0.1,0.2-0.1c0.1-0.1,0.3-0.1,0.4-0.2
					c0.1,0,0.2-0.1,0.2-0.2c0.1-0.2,0.3-0.3,0.3-0.6c0-0.1,0-0.3,0-0.4c0-0.1,0-0.2,0-0.2c1.6-0.1,3.2-0.7,4.5-1.6
					c0.1,0.1,0.1,0.2,0.2,0.2c1,1.4,1.5,3,1.4,4.7c0,0.4,0,0.7,0,1.1c0,0.2-0.1,0.3-0.2,0.4c-0.2,0.1-0.4,0.3-0.6,0.4
					c-0.5,0.3-1.1,0.6-1.7,0.8c-0.5,0.2-1.1,0.3-1.6,0.4c-0.5,0.1-1,0.1-1.5,0.1c-0.1,0-0.3,0-0.4,0C51.6,69.8,51.5,69.8,51.5,69.8"
					/>
				<path id="Path_624" class="st0" d="M51.5,49c0.2,0,0.4,0,0.6-0.1c0.7,0,1.4,0,2,0.2c0.7,0.1,1.4,0.4,2,0.7
					c0.5,0.3,0.9,0.5,1.3,0.8c0.2,0.1,0.3,0.3,0.3,0.5c0.1,1.1,0,2.2-0.3,3.3c-0.3,0.9-0.7,1.8-1.2,2.5c0,0-0.1,0.1-0.1,0.1
					c-1.3-1-2.9-1.5-4.5-1.6c0-0.1,0-0.2,0-0.3c0-0.1,0-0.2,0-0.3c0-0.1,0-0.2-0.1-0.3c-0.2-0.2-0.2-0.4-0.4-0.5
					c-0.1-0.1-0.3-0.1-0.4-0.2l-0.2-0.1C51.4,52.3,51.6,50.6,51.5,49"/>
				<path id="Path_625" class="st0" d="M38.1,72.2c1.5-0.7,2.8-1.7,3.7-3.1c0,0,0.1,0,0.1,0.1c0.1,0.1,0.3,0.2,0.4,0.3
					c0.1,0.1,0.3,0.1,0.4,0.1c0,0,0.1,0,0.1,0c0.1,0,0.3,0,0.4-0.1c0.2-0.1,0.3-0.2,0.5-0.3c0.4,0.7,1,1.3,1.6,1.8
					c0.6,0.5,1.3,1,2.1,1.3c0,0.1-0.1,0.2-0.1,0.3c-0.3,0.6-0.7,1.2-1.1,1.8c-0.6,0.7-1.2,1.3-2,1.7c-0.4,0.2-0.8,0.4-1.2,0.7
					c-0.1,0.1-0.3,0.1-0.4,0c-1-0.4-1.9-1-2.7-1.8c-0.7-0.7-1.3-1.5-1.7-2.3C38.2,72.3,38.2,72.2,38.1,72.2"/>
				<path id="Path_626" class="st1" d="M45.9,75.5c0.9-0.9,1.6-2,2.1-3.2c0,0,0.1,0,0.1,0c0.6,0.1,1.1,0.2,1.7,0.3
					c0.1,0,0.2,0,0.2,0c0.3,0,0.5-0.1,0.6-0.3c0.3-0.6,0.6-1.2,0.7-1.9l0-0.1c1.3,0.2,2.6,0.1,3.8-0.2c0,0.1,0,0.2,0,0.3
					c0,0.4,0,0.9-0.1,1.3c-0.2,1.1-0.5,2.2-1,3.2c-0.3,0.7-0.7,1.3-1.2,1.9c-0.1,0.1-0.1,0.1-0.2,0.1c-0.7,0.1-1.4,0.1-2.1,0.1
					c-0.6,0-1.1-0.1-1.6-0.2c-0.9-0.2-1.7-0.4-2.5-0.8C46.3,75.9,46.1,75.7,45.9,75.5"/>
				<path id="Path_627" class="st1" d="M37.7,72.3c0.5,1.2,1.2,2.3,2.1,3.2c-0.1,0-0.1,0.1-0.2,0.1c-0.3,0.2-0.6,0.4-1,0.5
					c-1,0.4-2.1,0.7-3.1,0.8c-0.9,0.1-1.8,0.1-2.7,0c-0.1,0-0.2-0.1-0.2-0.1c-0.6-0.8-1.1-1.6-1.5-2.5c-0.4-0.9-0.6-1.9-0.8-2.9
					c-0.1-0.4-0.1-0.7,0-1.1c0-0.1,0-0.1,0-0.2c1.3,0.3,2.6,0.4,3.8,0.2c0,0,0,0.1,0,0.1c0.2,0.7,0.4,1.3,0.8,1.9
					c0.1,0.2,0.3,0.4,0.6,0.3c0.7,0,1.3-0.1,2-0.3C37.6,72.3,37.7,72.3,37.7,72.3"/>
				<path id="Path_628" class="st1" d="M37.7,46.5c-0.2,0-0.4-0.1-0.6-0.1c-0.5-0.1-1-0.1-1.6-0.2c-0.3,0-0.5,0.1-0.6,0.3
					c-0.3,0.6-0.6,1.2-0.8,1.9c0,0,0,0.1,0,0.1c-1.3-0.2-2.6-0.1-3.8,0.2c0,0,0-0.1,0-0.1c0-0.4,0-0.7,0-1.1
					c0.2-1.2,0.5-2.4,1.1-3.6c0.3-0.7,0.7-1.3,1.2-1.9c0-0.1,0.1-0.1,0.2-0.1c0.7-0.1,1.5-0.2,2.2-0.1c0.7,0.1,1.3,0.2,2,0.3
					c0.7,0.2,1.4,0.4,2.1,0.7c0.3,0.1,0.5,0.3,0.7,0.4C38.9,44.2,38.2,45.3,37.7,46.5"/>
				<path id="Path_629" class="st1" d="M27.4,53.9c0.2,0.6,0.4,1.2,0.7,1.8c0.3,0.6,0.6,1.1,1,1.6c0,0,0,0,0,0.1
					c-0.5,0.5-0.9,1-1.3,1.6c-0.2,0.2-0.2,0.6,0,0.8c0.4,0.6,0.8,1.1,1.3,1.6c0,0,0,0,0,0.1c-0.8,1-1.4,2.2-1.7,3.4
					c-0.1,0-0.1,0-0.2-0.1c-0.3-0.1-0.6-0.3-0.8-0.5c-1-0.8-1.9-1.7-2.6-2.7c-0.4-0.6-0.8-1.3-1.1-2c0-0.1,0-0.2,0-0.3
					c0.3-0.9,0.8-1.8,1.5-2.5c0.7-0.9,1.5-1.7,2.4-2.3c0.2-0.1,0.4-0.2,0.6-0.4C27.3,54,27.3,54,27.4,53.9"/>
				<path id="Path_630" class="st1" d="M51.5,48.5c0-0.1-0.1-0.3-0.1-0.4c-0.2-0.5-0.4-1-0.6-1.5c-0.1-0.3-0.4-0.4-0.7-0.4
					c-0.7,0-1.3,0.1-2,0.3c0,0,0,0,0,0c-0.5-1.2-1.2-2.3-2.1-3.2c0.2-0.2,0.4-0.3,0.7-0.4c0.8-0.4,1.6-0.6,2.5-0.8
					c0.9-0.2,1.9-0.3,2.8-0.3c0.3,0,0.7,0.1,1,0.1c0.1,0,0.2,0.1,0.2,0.1c0.6,0.8,1.1,1.6,1.5,2.5c0.4,1,0.6,2,0.8,3
					c0.1,0.3,0.1,0.7,0,1c0,0,0,0.1,0,0.1C54.1,48.4,52.8,48.3,51.5,48.5"/>
				<path id="Path_631" class="st1" d="M58.3,64.9c-0.4-1.2-0.9-2.4-1.7-3.4c0,0,0-0.1,0.1-0.1c0.5-0.5,0.9-1,1.3-1.6
					c0.1-0.2,0.1-0.5,0-0.7c-0.4-0.6-0.8-1.1-1.3-1.6c0,0-0.1,0-0.1-0.1c0.8-1,1.4-2.2,1.8-3.5c0.1,0,0.1,0,0.2,0.1
					c0.3,0.2,0.6,0.4,0.9,0.6c1,0.8,1.8,1.6,2.5,2.6c0.4,0.6,0.8,1.3,1.1,2c0,0.1,0,0.2,0,0.3c-0.3,0.8-0.7,1.5-1.2,2.2
					c-0.7,1-1.6,1.9-2.6,2.7C58.9,64.6,58.6,64.7,58.3,64.9"/>
				<path id="Path_632" class="st1" d="M45.4,65.5l0.4,0.1c0.1,0,0.2,0,0.2,0c0.3,0,0.5-0.1,0.6-0.4c0.1-0.2,0.2-0.4,0.2-0.6
					c1,0.5,2.1,0.8,3.2,0.6c0.2,0.3,0.4,0.7,0.5,1.1c0.2,0.7,0.4,1.5,0.4,2.3c0,0.8-0.1,1.7-0.4,2.4c-0.1,0.3-0.2,0.6-0.4,0.9
					c-0.2,0-0.4,0-0.5,0c-0.4-0.1-0.8-0.1-1.2-0.2c-0.8-0.2-1.5-0.6-2.1-1c-0.7-0.5-1.2-1.1-1.7-1.7c0,0-0.1-0.1-0.1-0.1
					c-0.1-0.1-0.1-0.2-0.2-0.3C45,67.7,45.4,66.6,45.4,65.5"/>
				<path id="Path_633" class="st1" d="M46.9,54.2c-0.1-0.2-0.2-0.4-0.2-0.6c-0.1-0.3-0.4-0.4-0.6-0.4c-0.2,0-0.4,0.1-0.6,0.1
					c0-0.1,0-0.1,0-0.2c0-0.9-0.3-1.8-0.8-2.6c-0.1-0.1-0.1-0.2-0.2-0.3c0.2-0.4,0.5-0.7,0.7-1c0.6-0.7,1.4-1.3,2.3-1.7
					c0.5-0.3,1.1-0.5,1.7-0.5c0.3,0,0.5-0.1,0.8-0.1c0.1,0,0.2,0,0.2,0c0.1,0.2,0.2,0.4,0.3,0.6c0.2,0.5,0.4,1.1,0.5,1.6
					c0.1,0.6,0.1,1.2,0,1.8c0,0.3-0.1,0.6-0.2,0.9c-0.1,0.6-0.4,1.2-0.7,1.8C48.9,53.4,47.8,53.6,46.9,54.2"/>
				<path id="Path_634" class="st1" d="M51.5,62.7c-0.2-0.5-0.5-1-0.8-1.4c-0.4-0.4-0.8-0.8-1.3-1c0.1-0.2,0.3-0.3,0.4-0.5
					c0.2-0.2,0.2-0.5,0-0.8c-0.1-0.2-0.2-0.3-0.4-0.5c0,0,0,0,0,0c1-0.6,1.7-1.4,2.1-2.4c1,0,2.1,0.3,3,0.7c1.2,0.5,2.2,1.4,2.8,2.6
					c0,0-0.1,0.1-0.1,0.1c-0.3,0.4-0.5,0.7-0.8,1.1c-0.4,0.5-0.9,0.9-1.5,1.2c-0.8,0.4-1.6,0.7-2.4,0.8
					C52.1,62.7,51.8,62.7,51.5,62.7"/>
				<path id="Path_635" class="st1" d="M34.2,56.1c0.4,1,1.1,1.9,2.1,2.4c-0.1,0.2-0.3,0.3-0.4,0.5c-0.2,0.2-0.2,0.5,0,0.7
					c0.1,0.2,0.3,0.3,0.4,0.5c-0.5,0.3-0.9,0.6-1.3,1c-0.4,0.4-0.7,0.9-0.8,1.4c-1,0-2-0.3-3-0.7c-1.2-0.5-2.2-1.4-2.8-2.6
					c0,0,0-0.1,0.1-0.1c0.3-0.4,0.5-0.7,0.8-1.1c0.6-0.7,1.3-1.2,2.2-1.5c0.5-0.2,1-0.4,1.5-0.5c0.3-0.1,0.7-0.1,1.1-0.1
					C34.1,56.1,34.1,56.1,34.2,56.1"/>
				<path id="Path_636" class="st1" d="M41.4,50.2c-0.4,0.4-0.6,0.9-0.8,1.4c-0.2,0.5-0.3,1.1-0.3,1.6l-0.4-0.1c-0.1,0-0.2,0-0.2,0
					c-0.3,0-0.5,0.1-0.6,0.3c-0.1,0.2-0.2,0.4-0.2,0.6c-1-0.5-2.1-0.8-3.2-0.6c-0.2-0.4-0.4-0.7-0.5-1.1c-0.2-0.7-0.4-1.5-0.4-2.2
					c0-0.9,0.1-1.7,0.5-2.5l0.4-0.8l0.5,0c0.9,0.1,1.8,0.3,2.5,0.7c0.5,0.3,1,0.7,1.5,1.1c0.4,0.4,0.8,0.8,1.1,1.2
					C41.2,50,41.3,50.1,41.4,50.2"/>
				<path id="Path_637" class="st1" d="M35.6,71.9c-0.4-0.7-0.7-1.5-0.8-2.4c-0.1-0.6-0.1-1.2,0-1.7c0.1-0.8,0.3-1.5,0.6-2.2
					c0.1-0.1,0.1-0.3,0.2-0.4c1.1,0.2,2.2-0.1,3.2-0.6c0,0,0,0.1,0.1,0.1c0.1,0.1,0.1,0.3,0.2,0.4c0.1,0.3,0.4,0.4,0.6,0.4
					c0.2,0,0.4-0.1,0.6-0.1c0,1.1,0.4,2.2,1.1,3c-0.1,0.1-0.1,0.2-0.2,0.3c-0.7,1-1.7,1.9-2.8,2.5c-0.5,0.3-1.1,0.4-1.7,0.5
					c-0.3,0-0.5,0.1-0.8,0.1C35.8,71.9,35.7,71.9,35.6,71.9"/>
				<path id="Path_638" class="st2" d="M36.8,60.7c0.3,0.2,0.7,0.4,1.1,0.6c0.4,0.2,0.8,0.2,1.2,0.2c-0.4,0.7-0.6,1.6-0.5,2.4
					c-0.2,0.1-0.4,0.2-0.6,0.3c-0.5,0.2-1.1,0.4-1.6,0.4c-0.4,0-0.9-0.1-1.3-0.2c-0.2-0.1-0.3-0.2-0.5-0.2c0-0.5,0.1-1,0.3-1.4
					c0.1-0.2,0.2-0.5,0.4-0.7C35.7,61.5,36.2,61.1,36.8,60.7"/>
				<path id="Path_639" class="st2" d="M39.2,57.3c-0.8,0-1.7,0.3-2.3,0.8C36,57.6,35.4,57,35,56.2c-0.2-0.5-0.3-1-0.3-1.5
					c0.6-0.4,1.4-0.6,2.1-0.5c0.7,0.1,1.3,0.3,1.9,0.7C38.6,55.7,38.7,56.6,39.2,57.3"/>
				<path id="Path_640" class="st2" d="M51,64.1c-0.6,0.4-1.3,0.5-2,0.5c-0.2,0-0.4-0.1-0.7-0.1c-0.5-0.1-1-0.3-1.4-0.6
					c0.1-0.8-0.1-1.7-0.5-2.4c0.8,0,1.7-0.3,2.3-0.8c0.1,0.1,0.2,0.1,0.3,0.2c0.5,0.3,0.9,0.7,1.2,1.2c0.3,0.5,0.5,1.1,0.6,1.6
					c0,0.1,0,0.1,0,0.2S51,64.1,51,64.1"/>
				<path id="Path_641" class="st2" d="M51,54.7c0,0.7-0.2,1.4-0.5,1.9c-0.4,0.6-1,1.1-1.6,1.5c-0.7-0.5-1.5-0.8-2.3-0.8
					c0.4-0.7,0.6-1.6,0.5-2.4c0.1-0.1,0.3-0.2,0.4-0.2c0.6-0.3,1.2-0.4,1.8-0.5c0.5,0,0.9,0.1,1.4,0.3C50.7,54.5,50.9,54.6,51,54.7"
					/>
				<path id="Path_642" class="st2" d="M41,65.3c0.8-0.3,1.4-0.9,1.8-1.6c0.4,0.7,1.1,1.3,1.9,1.6c0,0.8-0.2,1.6-0.6,2.4
					c-0.3,0.5-0.8,0.9-1.3,1.2c-0.7-0.4-1.2-0.9-1.5-1.6C41.1,66.6,41,66,41,65.3"/>
				<path id="Path_643" class="st2" d="M42.8,49.9c0.7,0.4,1.2,1,1.5,1.7c0.2,0.6,0.3,1.2,0.3,1.9c-0.8,0.3-1.4,0.9-1.8,1.6
					c-0.4-0.7-1.1-1.3-1.9-1.6c0-0.8,0.2-1.6,0.6-2.3C41.9,50.7,42.3,50.2,42.8,49.9"/>
				<path id="Path_644" class="st2" d="M42.8,57.4c0.3,0,0.6,0.1,1,0.1c0.1,0,0.1,0,0.2,0.1c0.2,0.2,0.4,0.5,0.6,0.8
					c0.2,0.3,0.3,0.6,0.4,0.9c0,0.1,0,0.1,0,0.2c-0.1,0.2-0.2,0.5-0.3,0.7c-0.2,0.3-0.4,0.7-0.6,0.9c0,0.1-0.1,0.1-0.2,0.1
					c-0.2,0-0.4,0.1-0.7,0.1c-0.4,0-0.8,0-1.2-0.1c-0.1,0-0.2-0.1-0.3-0.2c-0.2-0.2-0.4-0.5-0.5-0.7c-0.2-0.3-0.3-0.6-0.4-1
					c0-0.1,0-0.1,0-0.2c0.1-0.2,0.2-0.5,0.3-0.7c0.2-0.3,0.4-0.6,0.6-0.9c0.1-0.1,0.1-0.1,0.2-0.1l0.7-0.1L42.8,57.4L42.8,57.4"/>
			</g>
			<g id="Group_1138">
				<path id="Path_645" class="st2" d="M42.8,81.8c-12.3,0-22.3-10-22.3-22.3c0-12.3,10-22.3,22.3-22.3s22.3,10,22.3,22.3
					C65.2,71.7,55.2,81.7,42.8,81.8z M42.8,37.9c-11.9,0-21.5,9.6-21.5,21.5S31,80.9,42.8,80.9c11.9,0,21.5-9.6,21.5-21.5
					C64.4,47.5,54.7,37.9,42.8,37.9z"/>
			</g>
		</g>
		<g id="Group_1142">
			<g id="Group_1140">
				<path id="Path_646" class="st2" d="M81.9,70.8c0,1-0.2,1.9-0.5,2.8c-0.7,1.7-2,3-3.7,3.7C76,78,74,78,72.2,77.3
					c-1.7-0.7-3-2-3.7-3.7c-0.7-1.8-0.7-3.8,0-5.6c0.7-1.7,2-3,3.7-3.7c1.8-0.7,3.7-0.7,5.5,0c1.7,0.7,3,2,3.7,3.7
					C81.8,68.9,81.9,69.8,81.9,70.8z M80.5,70.8c0-0.7-0.1-1.5-0.4-2.2c-0.2-0.7-0.6-1.3-1.1-1.8c-0.5-0.5-1.1-1-1.7-1.3
					c-1.5-0.6-3.1-0.6-4.6,0c-0.7,0.3-1.2,0.7-1.7,1.3c-0.5,0.5-0.8,1.2-1.1,1.8c-0.5,1.4-0.5,3,0,4.4c0.2,0.7,0.6,1.3,1.1,1.8
					c0.5,0.5,1.1,1,1.7,1.3c1.5,0.6,3.1,0.6,4.6,0c0.7-0.3,1.2-0.7,1.7-1.3c0.5-0.5,0.8-1.2,1.1-1.8C80.3,72.3,80.5,71.5,80.5,70.8z
					"/>
				<path id="Path_647" class="st2" d="M96.6,72.5c0,0.6-0.1,1.2-0.2,1.8c-0.1,0.6-0.4,1.2-0.7,1.7c-0.4,0.5-0.9,1-1.5,1.3
					c-1.6,0.7-3.3,0.7-4.9,0c-0.6-0.3-1.1-0.8-1.5-1.3c-0.4-0.5-0.6-1.1-0.7-1.7c-0.1-0.6-0.2-1.2-0.2-1.8v-8.4h1.4v8.2
					c0,0.6,0.1,1.1,0.2,1.6c0.1,0.4,0.3,0.8,0.5,1.2c0.2,0.3,0.4,0.5,0.7,0.7c0.2,0.2,0.5,0.3,0.8,0.4c0.2,0.1,0.5,0.2,0.7,0.2
					c0.2,0,0.4,0,0.6,0c0.2,0,0.4,0,0.6,0c0.3,0,0.5-0.1,0.8-0.2c0.3-0.1,0.5-0.3,0.8-0.4c0.3-0.2,0.5-0.5,0.7-0.7
					c0.2-0.4,0.4-0.7,0.5-1.2c0.1-0.5,0.2-1.1,0.2-1.6v-8.2h1.4L96.6,72.5z"/>
				<path id="Path_648" class="st2" d="M106.8,77.5h-1.4V65.4H101v-1.2h10.3v1.2h-4.5V77.5z"/>
				<path id="Path_649" class="st2" d="M115.6,64.1h4.4c0.9,0,1.7,0.1,2.5,0.4c0.8,0.3,1.6,0.7,2.3,1.3c0.7,0.6,1.2,1.3,1.6,2.1
					c0.8,1.9,0.8,4,0,5.8c-0.4,0.8-0.9,1.5-1.6,2.1c-0.7,0.6-1.4,1-2.3,1.3c-0.8,0.3-1.6,0.4-2.5,0.4h-4.4V64.1z M117,76.2h2.6
					c0.9,0,1.8-0.1,2.6-0.5c0.7-0.3,1.3-0.7,1.9-1.2c0.5-0.5,0.9-1.1,1.1-1.7c0.5-1.3,0.5-2.7,0-4c-0.2-0.6-0.6-1.2-1.1-1.7
					c-0.5-0.5-1.2-0.9-1.9-1.2c-0.8-0.3-1.7-0.5-2.6-0.5h-2.6L117,76.2z"/>
				<path id="Path_650" class="st2" d="M145.2,70.8c0,1-0.2,1.9-0.5,2.8c-0.7,1.7-2,3-3.7,3.7c-1.8,0.7-3.7,0.7-5.5,0
					c-1.7-0.7-3-2-3.7-3.7c-0.7-1.8-0.7-3.8,0-5.6c0.7-1.7,2-3,3.7-3.7c1.8-0.7,3.7-0.7,5.5,0c1.7,0.7,3,2,3.7,3.7
					C145,68.9,145.2,69.8,145.2,70.8z M143.7,70.8c0-0.7-0.1-1.5-0.4-2.2c-0.2-0.7-0.6-1.3-1.1-1.8c-0.5-0.5-1.1-1-1.7-1.3
					c-1.5-0.6-3.1-0.6-4.6,0c-0.7,0.3-1.2,0.7-1.7,1.3c-0.5,0.5-0.8,1.2-1.1,1.8c-0.5,1.4-0.5,3,0,4.4c0.2,0.7,0.6,1.3,1.1,1.8
					c0.5,0.5,1.1,1,1.7,1.3c1.5,0.6,3.1,0.6,4.6,0c0.7-0.3,1.2-0.7,1.7-1.3c0.5-0.5,0.8-1.2,1.1-1.8
					C143.6,72.3,143.7,71.5,143.7,70.8L143.7,70.8z"/>
				<path id="Path_651" class="st2" d="M163.4,70.8c0,1-0.2,1.9-0.5,2.8c-0.7,1.7-2,3-3.7,3.7c-1.8,0.7-3.7,0.7-5.5,0
					c-1.7-0.7-3-2-3.7-3.7c-0.7-1.8-0.7-3.8,0-5.6c0.7-1.7,2-3,3.7-3.7c1.8-0.7,3.7-0.7,5.5,0c1.7,0.7,3,2,3.7,3.7
					C163.2,68.9,163.4,69.8,163.4,70.8z M161.9,70.8c0-0.7-0.1-1.5-0.4-2.2c-0.2-0.7-0.6-1.3-1.1-1.8c-0.5-0.5-1.1-1-1.7-1.3
					c-1.5-0.6-3.1-0.6-4.6,0c-0.7,0.3-1.2,0.7-1.7,1.3c-0.5,0.5-0.8,1.2-1.1,1.8c-0.5,1.4-0.5,3,0,4.4c0.2,0.7,0.6,1.3,1.1,1.8
					c0.5,0.5,1.1,1,1.7,1.3c1.5,0.6,3.1,0.6,4.6,0c0.7-0.3,1.2-0.7,1.7-1.3c0.5-0.5,0.8-1.2,1.1-1.8
					C161.8,72.3,161.9,71.5,161.9,70.8z"/>
				<path id="Path_652" class="st2" d="M169.9,77.5h-1.4V64.1h4.1c1.1-0.1,2.3,0.2,3.2,0.9c0.8,0.6,1.3,1.6,1.2,2.7
					c0,0.9-0.3,1.7-0.9,2.3c-0.7,0.7-1.6,1.1-2.5,1.1l3.8,6.3h-1.7l-3.7-6.2h-2.3V77.5L169.9,77.5z M169.9,70h2.4
					c0.5,0,1-0.1,1.5-0.2c0.4-0.1,0.7-0.3,1-0.5c0.2-0.2,0.4-0.4,0.5-0.7c0.1-0.3,0.2-0.6,0.2-0.9c0-0.3-0.1-0.6-0.2-0.9
					c-0.1-0.3-0.3-0.5-0.5-0.7c-0.3-0.2-0.6-0.4-1-0.5c-0.5-0.1-1-0.2-1.5-0.2h-2.4V70z"/>
			</g>
			<g id="Group_1141">
				<path id="Path_653" class="st1" d="M85.6,60.9c-0.2,0-0.5-0.1-0.7-0.1h-1.5c-0.2,0-0.5,0-0.7,0.1c-0.1-0.4-0.3-0.9-0.5-1.5
					c-0.2-0.6-0.5-1.2-0.7-1.9c-0.3-0.6-0.5-1.3-0.8-2s-0.5-1.3-0.8-1.9c-0.6,0-1.2,0-1.8,0c-0.6,0-1.2,0-1.8,0c-0.6,0-1.1,0-1.7,0
					s-1.1,0-1.7,0c-0.6,1.4-1.1,2.8-1.6,4.1c-0.5,1.3-0.8,2.4-1.1,3.2c-0.7-0.1-1.4-0.1-2,0c1.5-3.2,2.9-6.4,4.3-9.6
					c1.4-3.2,2.8-6.4,4.3-9.7h0.5l1.4,3.4c0.5,1.2,1,2.5,1.6,3.7s1.1,2.5,1.6,3.8c0.5,1.2,1,2.4,1.5,3.5c0.5,1.1,0.9,2,1.3,2.9
					C85,59.9,85.4,60.5,85.6,60.9z M73.4,52.4c0.5,0,1,0,1.5,0c0.5,0,1,0,1.5,0c0.5,0,1,0,1.5,0c0.5,0,1,0,1.5,0l-3-7L73.4,52.4z"/>
				<path id="Path_654" class="st1" d="M88.9,49.2c0-1.2,0-2.4-0.1-3.6c0-1.2-0.1-2.3-0.2-3.6c0.5,0,1.1,0.1,1.6,0.1s1,0,1.6,0
					s1.1,0,1.6-0.1s1-0.1,1.6-0.1c0.7,0,1.5,0.1,2.2,0.2c0.6,0.1,1.3,0.4,1.8,0.7c0.5,0.3,0.9,0.8,1.2,1.3c0.3,0.6,0.5,1.3,0.5,2.1
					c0,0.8-0.2,1.6-0.6,2.3c-0.4,0.6-0.9,1.1-1.4,1.6c-0.6,0.4-1.2,0.7-1.8,1c-0.6,0.2-1.2,0.4-1.8,0.5c0.2,0.3,0.5,0.7,0.9,1.2
					s0.8,1,1.3,1.6c0.5,0.6,1,1.2,1.5,1.9c0.5,0.6,1,1.3,1.5,1.9s0.9,1.1,1.3,1.6c0.4,0.5,0.8,0.9,1,1.1c-0.3,0-0.5-0.1-0.8-0.1
					h-1.6c-0.3,0-0.5,0-0.8,0.1c-0.3-0.4-0.7-1-1.2-1.7s-1.2-1.6-1.9-2.5c-0.7-0.9-1.4-1.8-2.1-2.6s-1.3-1.6-1.9-2.2h-1v2
					c0,1.2,0,2.4,0.1,3.6c0,1.2,0.1,2.3,0.2,3.5c-0.4,0-0.9-0.1-1.3-0.1c-0.5,0-0.9,0-1.3,0.1c0.1-1.1,0.1-2.3,0.2-3.5
					s0.1-2.4,0.1-3.6L88.9,49.2L88.9,49.2z M91.1,50.8c0.3,0.1,0.6,0.1,0.8,0.1c0.3,0,0.6,0,1,0c0.6,0,1.2-0.1,1.8-0.2
					c0.6-0.1,1.2-0.3,1.7-0.7c0.5-0.3,1-0.8,1.3-1.3c0.4-0.6,0.5-1.3,0.5-2c0-0.6-0.1-1.2-0.4-1.8c-0.2-0.4-0.6-0.8-1-1.1
					c-0.4-0.3-0.9-0.5-1.4-0.6c-0.5-0.1-1-0.1-1.5-0.2c-0.6,0-1.2,0-1.6,0c-0.4,0-0.8,0.1-1.1,0.1c0,1-0.1,2-0.1,3c0,1-0.1,2,0,3
					L91.1,50.8L91.1,50.8z"/>
				<path id="Path_655" class="st1" d="M109,43.5c-0.5,0-1,0-1.5,0c-0.5,0-1,0-1.6,0.1s-1,0.1-1.5,0.1s-0.9,0.1-1.3,0.1
					c0.1-0.3,0.1-0.6,0.1-0.9c0-0.3-0.1-0.6-0.1-0.9c1.2,0,2.4,0.1,3.5,0.1s2.3,0,3.5,0c1.2,0,2.4,0,3.5,0c1.2,0,2.3-0.1,3.5-0.1
					c-0.1,0.3-0.1,0.6-0.1,0.9c0,0.3,0.1,0.6,0.1,0.9c-0.4-0.1-0.8-0.1-1.3-0.1c-0.5,0-1-0.1-1.5-0.1s-1,0-1.6-0.1s-1,0-1.5,0
					c-0.1,1.9-0.1,3.8-0.1,5.7v4.7c0,1.2,0,2.4,0.1,3.6c0,1.2,0.1,2.3,0.2,3.5c-0.4,0-0.9-0.1-1.3-0.1c-0.5,0-0.9,0-1.3,0.1
					c0.1-1.1,0.1-2.3,0.2-3.5s0.1-2.4,0.1-3.6v-4.7C109.1,47.3,109.1,45.4,109,43.5z"/>
				<path id="Path_656" class="st1" d="M120.6,45.6c0-1.2-0.1-2.3-0.2-3.6c0.2,0,0.5,0.1,0.7,0.1c0.4,0.1,0.9,0.1,1.3,0
					c0.2,0,0.4-0.1,0.7-0.1c-0.1,1.2-0.1,2.4-0.2,3.6c0,1.2-0.1,2.3-0.1,3.6v4.7c0,1.2,0,2.4,0.1,3.6c0,1.2,0.1,2.3,0.2,3.5
					c-0.4,0-0.9-0.1-1.3-0.1c-0.5,0-0.9,0-1.3,0.1c0.1-1.1,0.1-2.3,0.2-3.5c0-1.2,0.1-2.4,0.1-3.6v-4.7
					C120.7,48,120.7,46.8,120.6,45.6z"/>
				<path id="Path_657" class="st1" d="M128.5,58.4c0.3,0.3,0.6,0.7,0.9,0.9c0.8,0.6,1.8,0.9,2.8,0.9c0.6,0,1.1-0.1,1.6-0.3
					c0.9-0.4,1.7-1.2,2-2.1c0.2-0.5,0.3-1,0.3-1.5c0-0.7-0.2-1.4-0.6-2c-0.5-0.5-1-0.9-1.6-1.2c-0.7-0.3-1.4-0.6-2.1-0.9
					c-0.7-0.3-1.4-0.6-2.1-1c-0.6-0.4-1.2-0.9-1.6-1.6c-0.5-0.8-0.7-1.7-0.6-2.6c0-0.7,0.1-1.4,0.4-2.1c0.3-0.6,0.7-1.2,1.2-1.6
					c0.6-0.5,1.2-0.8,1.9-1.1c0.8-0.3,1.6-0.4,2.5-0.4c0.8,0,1.5,0.1,2.3,0.3c0.6,0.2,1.3,0.5,1.8,1c-0.2,0.3-0.3,0.6-0.4,1
					c-0.1,0.4-0.2,0.9-0.3,1.3h-0.3c-0.1-0.3-0.2-0.6-0.4-0.8c-0.2-0.3-0.4-0.6-0.6-0.8c-0.3-0.3-0.6-0.5-0.9-0.6
					c-0.4-0.2-0.9-0.3-1.3-0.3c-0.5,0-1,0.1-1.4,0.2c-0.4,0.2-0.8,0.4-1.1,0.7c-0.3,0.3-0.6,0.7-0.7,1.1c-0.2,0.4-0.3,0.9-0.3,1.4
					c0,0.7,0.2,1.5,0.6,2c0.5,0.5,1,0.9,1.6,1.2c0.7,0.4,1.4,0.7,2.1,0.9c0.7,0.3,1.4,0.6,2.1,1c0.6,0.4,1.2,0.9,1.6,1.5
					c0.5,0.7,0.7,1.6,0.6,2.4c0,0.8-0.1,1.6-0.5,2.4c-0.3,0.7-0.7,1.4-1.3,2c-0.6,0.6-1.3,1-2.1,1.3c-0.9,0.3-1.9,0.5-2.8,0.5
					c-0.9,0-1.9-0.1-2.8-0.5c-0.6-0.3-1.2-0.6-1.8-1c0.1-0.4,0.3-0.7,0.3-1.1c0.1-0.3,0.1-0.8,0.2-1.3h0.3
					C128,57.7,128.2,58.1,128.5,58.4z"/>
				<path id="Path_658" class="st1" d="M157.5,60.9c-0.2,0-0.5-0.1-0.7-0.1h-1.5c-0.2,0-0.5,0-0.7,0.1c-0.1-0.4-0.3-0.9-0.5-1.5
					c-0.2-0.6-0.5-1.2-0.7-1.9c-0.3-0.6-0.5-1.3-0.8-2c-0.3-0.7-0.5-1.3-0.8-1.9c-0.6,0-1.2,0-1.8,0c-0.6,0-1.2,0-1.8,0
					c-0.6,0-1.1,0-1.7,0s-1.1,0-1.7,0c-0.6,1.4-1.1,2.8-1.6,4.1c-0.5,1.3-0.8,2.4-1.1,3.2c-0.7-0.1-1.4-0.1-2,0
					c1.5-3.2,2.9-6.4,4.3-9.6c1.4-3.2,2.8-6.4,4.3-9.7h0.5l1.4,3.4c0.5,1.2,1,2.5,1.6,3.7c0.5,1.3,1.1,2.5,1.6,3.8
					c0.5,1.2,1,2.4,1.5,3.5s0.9,2,1.3,2.9C156.9,59.9,157.2,60.5,157.5,60.9z M145.3,52.4c0.5,0,1,0,1.5,0s1,0,1.5,0
					c0.5,0,1,0,1.5,0c0.5,0,1,0,1.5,0l-3-7L145.3,52.4z"/>
				<path id="Path_659" class="st1" d="M169.5,53.8c-2.4-2.6-4.8-5.1-7.1-7.6c0,0.5,0,1.2-0.1,2.1c0,0.9,0,2,0,3.5
					c0,0.4,0,0.9,0,1.4s0,1.2,0,1.8c0,0.6,0,1.3,0,1.9s0,1.2,0.1,1.8s0,1,0.1,1.4s0,0.7,0.1,0.8c-0.3,0-0.6-0.1-1-0.1
					c-0.3,0-0.7,0-1,0.1c0-0.2,0.1-0.5,0.1-1c0-0.5,0.1-1.1,0.1-1.8s0.1-1.4,0.1-2.2s0.1-1.6,0.1-2.4s0.1-1.6,0.1-2.4s0-1.5,0-2.1
					c0-1.8,0-3.3,0-4.5c0-1.3,0-2.2-0.1-2.8h0.4c1.1,1.2,2.3,2.5,3.6,3.9c1.3,1.4,2.5,2.7,3.8,4.1c1.3,1.3,2.4,2.6,3.6,3.8
					c1.1,1.2,2.1,2.2,3,3.1v-3.7c0-1.9,0-3.8,0-5.6c0-1.8-0.1-3.5-0.2-5.1c0.3,0.1,0.6,0.1,0.9,0.1c0.3,0,0.6-0.1,0.9-0.1
					c0,0.4-0.1,1-0.1,1.8s-0.1,1.7-0.1,2.6c0,0.9-0.1,1.8-0.1,2.7c0,0.9-0.1,1.6-0.1,2.1v1.6c0,0.6,0,1.3,0,1.9s0,1.4,0,2
					c0,0.7,0,1.3,0,1.9c0,0.6,0,1.1,0,1.5v0.9h-0.4C174.1,58.9,171.9,56.4,169.5,53.8z"/>
			</g>
		</g>
	</g>
</g>
</svg>
