<?xml version="1.0" encoding="UTF-8"?>
<svg width="280px" height="65px" id="Layer_2" xmlns="http://www.w3.org/2000/svg" viewBox="0 0 280 65">
<defs><style>.cls-1{fill:#fff;}.cls-2{fill:#84a73e;}.cls-3{fill:#748f3b;}</style></defs>
<g id="Layer_1-2"><path class="cls-3" d="m211.09,41.54l-.35.13c-3.73,1.42-9.83,2.85-14.26,2.85-1.18,0-2-.38-2.18-1.02-.22-.76.45-1.75,1.69-2.52.44-.27,1.02-.69.91-1.27-.11-.62-.91-.85-1.61-.98-.31-.05-.6-.1-.87-.17.15-.5.13-.97-.06-1.39-.18-.41-.62-.97-1.68-1.26-1.19-.32-1.86.25-2.07.84-.28.78.07,1.87,1.09,2.57-.27.24-.57.45-.88.64-4.33,2.51-9.75,3.95-14.88,3.95-1.52,0-2.76-.13-3.66-.38.94-.71,2.25-1.92,2.25-3.12s-1-2.06-2.39-2.06c-1.49,0-2.76,1.02-3.24,2.45l-.63-.79-.33.18c-.73.4-1.38.94-1.87,1.54-2.76.94-6.47,2.17-9.91,2.17-1.48,0-2.7-.13-3.61-.37,1.16-.94,2.2-2.13,2.2-3.13,0-1.19-1-2.06-2.39-2.06-1.49,0-2.76,1.02-3.24,2.45l-.63-.79-.33.18c-.57.31-1.2.85-1.77,1.5-5.87,1.97-10.46,3.15-12.29,3.15-1.22,0-1.22-.29-1.22-.43,0-.31.17-1.23,1.78-3.22,1.51-1.65,3.19-3.61,4.99-5.82.86-1.06,1.78-2.22,2.79-3.49l1.62-2.04-1.66-.84-.23.29c-1.72,2.2-2.97,3.76-4.05,5.06-2.02,2.46-3.66,4.38-5,5.85-1.84-1.36-4.83-.26-6.31,1.53-1.58.63-12.65,4.99-16.38,4.99-1.1,0-2.49-.18-2.81-1.02-.23-.6.03-1.5.71-2.6l.12-.04-.04-.08c.95-1.5,2.64-3.36,4.94-5.36,1.3-1.14,2.59-2.18,3.82-3.09l.19-.02c.89-.08,1.82-.17,2.73-.28l.27-.03c1.72-.17,3.34-.33,4.62-.33,1.53,0,1.79.22,1.79.19v.45h1.89v-.45c0-1.88-2.77-1.88-3.68-1.88-1.43,0-3.25.18-5.04.36.94-.65,1.88-1.26,2.81-1.83l.49-.3-1.26-1.26-.3.19c-1.92,1.18-3.69,2.38-5.27,3.55-.59.03-1.14.05-1.66.05-2.04,0-2.13-.37-2.13-.37v-.45h-1.89v.45c0,1.26,1.15,1.95,3.42,2.05-.68.54-1.37,1.12-2.13,1.77-2.21,1.94-3.87,3.74-4.93,5.33-5.82,1.95-10.37,3.12-12.19,3.12-1.22,0-1.22-.29-1.22-.43,0-.42.83-1.45,2.48-3.05l1.12-1.1-.54-.29-.76-.46-.31-.15-.33.26c-1.42,1.4-4.45,3.91-6.71,4.42.26-.36.7-.94,1.45-1.84l.32-.39c.42-.5.82-.97,1.07-1.35l.31-.46-1.8-.72-.19.35c-.22.41-.75,1.01-1.24,1.57-1.63,1.96-2.44,3.18-2.06,3.99.2.42.66.63,1.38.63,1.11,0,2.37-.4,3.92-1.26.09,1.23,1.23,1.96,3.1,1.96,2.38,0,7.36-1.44,11.07-2.64-.32.94-.36,1.76-.1,2.45.35.94,1.44,2.06,4.59,2.06,3.42,0,11.69-3.01,15.45-4.45,0,1.15.78,1.9,1.97,1.9.7,0,1.41-.21,2.18-.63.32-.16.64-.36.99-.61.12,1.2,1.26,1.9,3.1,1.9,2.39,0,7.38-1.45,11.09-2.65-.11.7.15,1.13.31,1.33.72.87,2.4.85,4.39-.06.3-.15.58-.29.88-.45,1.27.59,3.08.89,5.38.89,3.09,0,6.35-.9,8.93-1.73,0,.03,0,.07,0,.1,0,1.01.76,1.66,1.93,1.66s2.5-.51,3.44-.97c1.21.63,3.05.94,5.47.94,5.48,0,11.27-1.54,15.91-4.23.69-.44,1.23-.87,1.62-1.29.19.06.38.1.56.14-1.33,1.13-1.92,2.51-1.56,3.76.41,1.4,1.9,2.23,4,2.23,4.63,0,11.07-1.5,15.03-2.97l.52-.19-.94-1.51Zm-38.93-1.49c.5,0,.5.24.5.37,0,.4-.74,1.28-1.97,2.09-.06-.13-.09-.27-.09-.42,0-1.11.71-2.04,1.56-2.04Zm-3.11,3.35c-.78.35-1.49.54-2.02.54h-.04c0-.22.12-.51.31-.81l.18-.06-.06-.12c.31-.42.75-.85,1.29-1.18,0,.1-.01.21-.01.31,0,.48.11.92.34,1.31Zm-16.66-3.35c.5,0,.5.24.5.37,0,.33-.62,1.21-1.95,2.15-.07-.15-.11-.3-.11-.48,0-1.11.71-2.04,1.56-2.04Zm-3.02,3.48c-.09.04-.18.08-.28.13-1.37.63-1.94.58-2.01.54,0,0-.06-.25.44-.96.03-.04.06-.08.09-.12l.11-.04-.03-.06c.38-.48.86-.94,1.27-1.22,0,.1-.01.2-.01.3,0,.53.15,1.02.42,1.44Zm-21.27-.4l.22-.09-.07-.12c.64-.84,1.86-1.65,2.94-1.65.29,0,.52.07.73.22-1.14,1.16-2.08,1.94-2.79,2.32-.65.31-1.03.38-1.29.39,0,0-.03-.05-.03-.23,0-.26.11-.55.3-.85Zm-49.06-26.99c-3.29,0-6.61,1.45-9.59,4.2-11.02,2.53-18.41,14.21-18.41,23.58,0,6.72,3.81,10.89,9.94,10.89s13.52-3.85,19.6-10.56c5.6-6.18,9.08-13.45,9.08-18.98,0-5.8-3.87-9.13-10.62-9.13Zm-18.06,36.98c-5.04,0-8.05-3.44-8.05-9.2,0-7.7,5.39-17.59,14.22-21.1-3.36,4.23-5.33,9.76-5.33,15.12,0,4.41,1.39,8.44,4.01,11.67l.23.28,1.66-.84-.36-.43c-2.43-2.96-3.65-6.55-3.65-10.67,0-5.88,2.57-12.02,6.72-16.07,1.15-.24,2.35-.36,3.69-.36,1.21,0,2.39.15,3.53.44l.38.1.65-1.56-.5-.13c-1.72-.46-3.52-.6-5.28-.5,2.03-1.32,4.13-2.02,6.15-2.02,5.71,0,8.73,2.57,8.73,7.44,0,10.99-14.37,27.84-26.8,27.84Z"/><path class="cls-2" d="m7.85,20.69c.83-.71,1.64-1.45,2.5-2.13,3.44-2.71,7.16-4.97,11.01-7.03,2.16-1.15,4.36-2.21,6.6-3.19.09-.04.18-.08.27-.2-.11,0-.22,0-.32,0-3.76-.12-7.42.41-10.96,1.69-3.23,1.17-6.15,2.87-8.79,5.04-3.05,2.51-5.61,5.45-7.65,8.84-.14.24-.28.49-.42.73,0,0-.03,0-.08.01.04-.27.07-.53.11-.78.62-3.82,1.55-7.55,3.11-11.1,1.14-2.6,2.6-5,4.57-7.06C10.53,2.64,13.87.92,17.78.29c1.26-.21,2.53-.29,3.81-.29,8.41,0,16.83,0,25.24,0h.56c-.01.12,0,.21-.04.28-2.24,6.32-5.28,12.18-9.66,17.3-2.89,3.37-6.23,6.21-10.07,8.47-.03,0-.05,0-.08,0-.06-.02-.12-.03-.17-.06-1.38-.84-2.84-1.53-4.33-2.14-1.94-.8-3.93-1.45-5.98-1.92-1.56-.35-3.14-.63-4.74-.81-1.1-.12-2.2-.24-3.3-.26-.39,0-.78-.11-1.17-.17"/><path class="cls-3" d="m7.85,20.69c.39.06.78.16,1.17.17,1.11.03,2.2.14,3.3.26,1.6.18,3.18.46,4.74.81,2.05.46,4.05,1.11,5.98,1.92,1.49.61,2.95,1.3,4.33,2.14.05.03.11.04.17.06-.05.05-.1.11-.17.14-2.57,1.47-5.26,2.64-8.1,3.49-.72.22-1.45.41-2.17.62-.86.18-1.71.36-2.57.55-.37.06-.73.12-1.1.16-1.63.18-3.26.38-4.89.53-.96.08-1.92.08-2.88.11-.86.03-1.72-.02-2.56-.17-.86-.15-1.7-.36-2.56-.54-.01-.04-.02-.09-.04-.13-.19-.5-.15-.92.16-1.4,1.11-1.74,2.18-3.49,3.53-5.06,1.06-1.24,2.21-2.4,3.42-3.49.07-.06.14-.1.21-.15"/><path class="cls-1" d="m26.52,30.43c.86.16,1.61.57,2.39.93.62.28,1.23.57,1.86.83.38.16.68.38.86.77.18.39.32.84.62,1.12.36.35.86.56,1.31.83.47.29.93.58,1.4.86.05.02.1.03.25.08-.21.14-.36.24-.51.34h-.02c-.11.09-.23.18-.34.27h-.02c-.11.09-.23.18-.34.27h-.02c-.11.09-.23.18-.34.27h-.01c-.11.09-.23.18-.34.27h-.01c-.11.09-.23.18-.34.27h-.01c-.17.14-.33.29-.51.42-.05.04-.14.07-.2.05-.72-.22-1.43-.45-2.14-.67-.1-.02-.2-.04-.31-.07-.08-.03-.16-.06-.25-.1h0c-.32-.09-.65-.18-.97-.28-.03,0-.06,0-.09,0-.29,0-.58.02-.86.02-.13.02-.26.04-.39.07-.94.04-1.89.07-2.83.11h0c-.18.2-.35.41-.53.62,0,0,0,.02,0,.01-.18.23-.36.45-.55.68-.9-.17-1.76-.34-2.62-.51-.04,0-.07-.08-.1-.12.3-1.18.04-2.32-.21-3.46-.12-.55-.29-1.08-.44-1.65.11-.07.22-.14.34-.2,1.45-.73,2.91-1.46,4.36-2.2.27-.14.52-.17.81-.09.37.1.75.19,1.12.26Zm-21.47,3.76c1.44.32,2.89.63,4.33.96.19.04.34.02.5-.07.59-.3,1.19-.61,1.79-.89.16-.08.37-.13.55-.11.22.03.37-.03.53-.16.93-.73,1.87-1.46,2.8-2.19.09-.07.15-.16.26-.26-.17-.07-.29-.11-.41-.17-.28-.15-.56-.31-.84-.46-.37.05-.73.12-1.1.16-1.63.18-3.26.38-4.89.53-.96.08-1.92.08-2.88.11-.86.03-1.72-.02-2.56-.17-.86-.15-1.71-.36-2.56-.54,0,.07,0,.15.02.22.32,1.35.65,2.7.98,4.09.18-.05.32-.09.45-.14.81-.29,1.62-.57,2.42-.86.2-.07.39-.08.6-.03Zm40.53,13.09c-.5.07-.97.13-1.43.2-1.04.15-2.07.29-3.11.45-.13.02-.27.11-.37.21-.62.69-1.24,1.39-1.85,2.09-.17.03-.17.13-.03.17.21.08.45.1.67.15.28.42.56.83.83,1.25.14.22.31.31.58.31,2.08-.01,4.15,0,6.22,0,.11,0,.22-.02.38-.03-.58-1.63-1.17-3.22-1.89-4.79Zm-28.29-16.52c-.07.55-.08.55.42.69.04.01.09,0,.13,0,.12.12.26.15.4.07.23-.12.45-.27.67-.41,0,0,0,0,0,0,.27-.15.53-.3.79-.45h0c.59-.33,1.18-.65,1.77-.98h.02c.34-.17.68-.34,1.02-.53.24-.13.48-.2.76-.2.99.01,1.99,0,2.98,0,.15,0,.34.08.4-.16v-.02s.05-.06.08-.09h0c.06-.09.12-.17.18-.26h0s.06-.06.08-.09h0s.06-.06.09-.09h0c.06-.09.12-.17.18-.25,0,0,0-.02,0-.02.03-.03.06-.06.09-.09h0s.06-.06.09-.09h0c.12-.15.24-.29.35-.43,0,0,0-.02,0-.02.03-.03.06-.06.09-.09h0c.09-.11.18-.23.27-.34,0,0,0-.02,0-.02.03-.03.06-.06.09-.09h0c.09-.08.27-.13.08-.29-.24-.17-.48-.34-.72-.5-.03,0-.05,0-.08,0-.06.05-.1.11-.17.14-2.57,1.47-5.26,2.64-8.09,3.49-.72.22-1.45.41-2.17.62.29.07.19.3.17.47Zm20.32,20.82c-.58-.18-1.16-.37-1.73-.55-.77-.25-1.57-.43-2.2-.99-.12-.1-.33-.13-.5-.13-.56-.02-1.13-.04-1.69,0-.89.06-1.73-.13-2.58-.37-.58-.17-1.17-.33-1.78-.26-.22.03-.44.06-.66.07-1.42.04-2.84.08-4.26.09-.32,0-.57.09-.83.26-.61.4-1.22.78-1.83,1.18-.38.25-.75.52-1.13.78-.1.04-.19.09-.29.13.81.22,1.6.26,2.4.29.16.01.32.04.48.04,5.49,0,10.97,0,16.46,0,.12,0,.25-.05.37-.08-.05-.16,0-.39-.24-.44ZM5.45,41.25c.28.03.55.06.83.08.53.04,1.05.06,1.58.09.03,0,.06,0,.09.01.21.03.41.06.62.09.12,0,.23,0,.35.01.45.05.89.11,1.34.16.12,0,.24,0,.36,0,.14.03.29.1.43.09.59-.02,1.18-.07,1.76-.11.35-.03.68-.11.96-.36.14-.12.33-.19.5-.29.21-.13.42-.26.63-.39h0c.06-.03.12-.06.18-.09h0c.21-.1.43-.18.63-.3.45-.25.88-.51,1.33-.77h0c.25-.12.51-.23.75-.36.67-.38.64-.2.63-1.08.02-.03.02-.05.02-.08.01-.64.02-1.27.04-1.91,0-.38,0-.75.01-1.12-.02-.35-.03-.7-.05-1.06-.04-.14-.05-.3-.12-.42-.2-.34-.43-.67-.65-1-.06-.08-.13-.16-.22-.2-.25-.12-.51-.22-.72-.32-.39.36-.75.69-1.1,1.03-.37.36-.68.82-1.11,1.07-.85.5-1.71,1.01-2.67,1.32-.82.27-1.62.57-2.44.83-.17.06-.38.07-.56.04-1.25-.23-2.5-.49-3.74-.73-.3-.13-.56,0-.81.15-.15.07-.3.13-.44.2-.04.02-.07.05-.1.07-.55.25-1.09.5-1.67.77.28.76.51,1.5.86,2.19.12.29.24.59.37.88.2.42.4.83.6,1.25.03.14.13.18.26.18.3,0,.61,0,.91,0,.13.02.26.05.39.07Zm10.42,6.77c-.23-.25-.46-.5-.69-.75-1.05-1.16-2.12-2.31-3.15-3.49-.4-.46-.83-.67-1.45-.67-.96,0-1.92-.09-2.88-.16-.75-.05-1.5-.11-2.25-.17-.17-.01-.34,0-.56,0,.09.18.14.28.2.38,1.05,1.64,2.25,3.16,3.72,4.46,1.59,1.41,3.38,2.49,5.37,3.24.15-.05.3-.1.45-.16h0c.06-.02.12-.05.17-.08h0c.15-.06.29-.12.44-.18h.01c.08-.01.17-.02.25-.05.42-.16.42-.17.42-.6,0-.4,0-.8,0-1.2,0-.19-.04-.38-.06-.57Zm23.6-1.41h0s.06-.06.09-.09h.02c.19-.06.26-.2.25-.4,0-.85-.01-1.7-.02-2.54-.07-.08-.12-.17-.2-.23-.74-.66-1.49-1.31-2.23-1.97-.48-.42-.95-.84-1.44-1.25-.14-.12-.31-.23-.48-.29-.31-.09-.64-.14-.96-.19-1.14-.19-2.27-.39-3.41-.56-.97-.14-1.94-.38-2.94-.23-.73.11-1.47.13-2.21.2-1.12.11-2.23.23-3.35.32-.34.03-.62.12-.92.28-.27.15-.56.24-.85.35-.16.06-.35.06-.5.14-1.47.8-3.04,1.38-4.43,2.33-.57.39-1.18.74-1.77,1.11-.08.05-.16.12-.27.21.33.35.64.69.95,1.02.03.03.06.07.09.1.02.03.04.06.06.08.04.04.07.08.11.12.02.02.04.04.06.07.28.15.55.3.83.45h0c.15.08.3.17.45.26h0c.15.09.29.19.44.28.06.29.12.58.19.86.03.03.05.07.08.1h0c.09.06.17.12.26.18,0,0,0,0,0,0,.09.06.17.12.26.18,0,0,0,0,0,0,.09.06.18.12.27.18.09.06.17.12.26.18,0,0,0,0,0,0,.18.12.36.25.54.37.02.17.05.34.07.51.05.04.11.11.15.1.32-.08.63-.18.95-.27h0s.05,0,.08,0c.42-.09.83-.18,1.25-.27.03-.03.06-.05.1-.08h0c.15,0,.29-.02.44-.03.35-.04.7-.12,1.05-.12.97,0,1.95.05,2.92.07.13,0,.26-.06.4-.1h.01c.15-.07.3-.14.46-.21.17-.08.33-.15.5-.23h0c.72.36,1.44.72,2.16,1.08.07.04.17.04.25.03.97-.05,1.94-.08,2.91-.15.5-.03.96.04,1.39.32.09.06.21.09.32.13h0c.13.06.25.15.38.18.37.1.75.14,1.11.26.49.16.85.02,1.15-.36.04-.06.09-.11.14-.17h0s.06-.07.09-.1h.02c.26-.23.52-.47.78-.7h0s.06-.07.09-.1h.02c.26-.23.52-.47.78-.71h.02c.26-.24.52-.48.79-.72Zm-4.26-8.23c.35.13.6.22.86.31h0c.56.23,1.12.47,1.69.71h0c.06.03.12.06.18.08h0c.06.03.12.06.18.09h0c.14.09.29.18.43.27.06.08.15.15.19.24.24.54.47,1.07.71,1.61.15.09.3.19.45.28.15.09.3.18.45.27,0,0,0,0,0,0,.2.12.41.24.62.36h0c.15.09.3.17.45.26h0c.21.12.41.24.62.36h0c.12.09.24.18.36.28-.03.13-.06.26-.08.39-.1.87-.2,1.74-.3,2.61,0,.02,0,.03,0,.04,0,.05.01.09.02.13l1.26-.52h0c.09-.03.18-.06.26-.09h0c.09-.03.17-.06.26-.09h0c.06-.02.12-.05.18-.09h0c.17-.06.35-.12.53-.18h.01c.13,0,.31.03.21-.21-.06-.14-.11-.28-.18-.41-.76-1.4-1.47-2.84-2.3-4.2-.78-1.29-1.67-2.51-2.51-3.76-.11-.16-.23-.27-.43-.23-.32.06-.65.07-.95.19-.97.37-1.91.78-2.87,1.18-.07.03-.14.05-.31.11Zm-5.73-7.88h0c.15.09.3.18.45.27,0,0,0,0,0,0,.15.09.3.18.45.27,0,0,0,0,0,0,.15.09.29.18.44.27h0c.15.09.3.18.45.27.15.09.3.18.44.27.06.03.12.06.18.09h0c.09.06.18.12.27.18h0c.06.03.12.06.18.09h0c.09.06.18.12.27.18h0c.06.03.12.06.18.09h0s.06.06.09.1c.41.35.84.7,1.24,1.07.46.44.9.9,1.36,1.34.1.1.23.16.35.24.26.01.54-.03.78.05.56.17.93-.17,1.4-.42-.11-.06-.16-.09-.21-.12-.54-.62-1.07-1.26-1.64-1.86-1.22-1.29-2.55-2.48-3.94-3.59-.52-.41-1.06-.8-1.62-1.22-.55.74-1.08,1.44-1.61,2.16.05.04.1.07.15.1.12.06.23.13.34.19Z"/><path class="cls-1" d="m75.31,26.49c.11.01.22.04.36.07v.63h-10.84v-.62c.24-.03.49-.07.75-.1.46-.06.85-.24,1-.69.15-.45.06-.89-.27-1.25-.23-.25-.45-.5-.69-.74-2.56-2.54-5.13-5.08-7.69-7.61-.05-.05-.11-.09-.22-.19-.03.17-.06.29-.06.4,0,2.41,0,4.82,0,7.23,0,.32.04.63.05.95.03.99.36,1.56,1.71,1.88.45.11.93.08,1.43.12v.61h-9.69c-.01-.11-.03-.22-.03-.33,0-.09.01-.18.02-.29.5-.03.98-.04,1.46-.1,1.01-.13,1.54-.63,1.7-1.63.09-.55.1-1.12.1-1.68,0-4.88,0-9.76,0-14.64,0-.65-.08-1.3-.14-1.95-.04-.47-.32-.78-.71-1.02-.54-.33-1.13-.48-1.76-.48-.2,0-.41,0-.64,0v-.59h9.7v.56c-.37.02-.73.02-1.07.08-.31.05-.61.15-.91.25-.75.25-1.08.81-1.14,1.57-.03.39-.07.78-.07,1.17,0,2.26,0,4.52,0,6.79,0,.11.01.22.02.4.13-.1.23-.16.32-.24,1.79-1.67,3.59-3.33,5.35-5.02.78-.75,1.51-1.56,2.23-2.37.27-.3.49-.66.66-1.03.34-.74,0-1.34-.8-1.47-.35-.06-.7-.07-1.1-.11-.01-.17-.02-.34-.03-.56h8.39v.55c-.08.03-.15.07-.21.07-1.42.06-2.55.79-3.61,1.63-.6.47-1.16,1.01-1.7,1.55-2.01,2.01-4,4.04-6,6.05-.08.08-.15.16-.26.28.38.38.74.74,1.11,1.11,2.57,2.56,5.13,5.12,7.73,7.66.65.64,1.37,1.21,2.11,1.76,1.02.76,2.17,1.22,3.45,1.35Zm16.5-21.46c.5.03.96.03,1.42.1.89.14,1.55.58,1.64,1.55.04.48.11.96.11,1.45,0,4.24,0,8.48,0,12.73,0,.14-.02.27-.03.5-.15-.17-.24-.26-.31-.36-1.19-1.46-2.39-2.92-3.58-4.39-3.2-3.92-6.4-7.85-9.59-11.78-.23-.29-.47-.41-.85-.4-1.72.02-3.44,0-5.16,0h-.54v.6c.42.05.84.07,1.23.15,1.21.24,2.13.93,2.9,1.87.21.26.32.5.32.85-.01,5.16,0,10.32-.01,15.48,0,.54-.04,1.08-.13,1.61-.12.8-.64,1.3-1.43,1.44-.33.06-.67.07-1,.08-.2.01-.4,0-.62,0,.02.27.03.46.04.65.45.04,1.63.06,2.93.06,2.18,0,4.74-.04,4.99-.11h0v-.6c-.22,0-.42,0-.62,0-.34-.02-.67-.03-1-.08-.86-.14-1.37-.64-1.48-1.51-.07-.53-.11-1.08-.11-1.62,0-4.43,0-8.86,0-13.29v-.66c.2.23.32.36.43.5,4.71,5.75,9.42,11.51,14.12,17.27.29.36.57.55,1.05.38v-.62c0-6.17,0-12.34,0-18.5,0-.5.03-1.01.08-1.51.1-1.07.67-1.65,1.74-1.77.44-.05.89-.06,1.35-.1v-.56h-7.91v.56Zm110.6-.55c.01.22.02.39.03.55.5.03.95.05,1.39.1,1.03.12,1.57.66,1.71,1.69.06.46.1.93.1,1.4,0,4.22,0,8.45,0,12.67v.53c-.17-.2-.26-.29-.34-.39-4.41-5.4-8.81-10.8-13.21-16.21-.22-.27-.43-.4-.79-.39-1.76.02-3.51,0-5.27.01-.15,0-.29.02-.44.03v.57c.44.06.85.08,1.25.17,1.17.24,2.06.91,2.82,1.81.26.3.39.59.39,1-.01,5.06,0,10.13-.01,15.2,0,.52-.04,1.05-.1,1.57-.13,1.14-.84,1.62-1.69,1.7-.46.04-.92.06-1.39.09v.62h7.91v-.62c-.53-.04-1.04-.04-1.53-.11-.92-.12-1.41-.58-1.55-1.5-.08-.55-.11-1.12-.11-1.68,0-4.43,0-8.86,0-13.29v-.6c.19.2.3.31.4.43,4.75,5.8,9.49,11.59,14.23,17.4.28.35.56.42.98.3v-.63c0-6.02,0-12.04,0-18.05,0-.63.02-1.27.07-1.9.09-1.1.67-1.69,1.76-1.82.44-.05.88-.06,1.34-.1v-.55h-7.95Zm-18.1,17.51c-.46.7-.88,1.43-1.39,2.1-.9,1.19-2.12,1.8-3.62,1.81-1.74.01-3.47.03-5.21.03-.35,0-.71-.05-1.05-.14-.2-.05-.36-.15-.47-.28-.04-.05-.07-.1-.1-.16-.02-.03-.04-.05-.05-.09-.03-.09-.06-.18-.07-.29,0,0,0-.02,0-.02,0-.06-.01-.12-.02-.17-.02-.16-.03-.33-.04-.49,0-.06-.01-.12-.01-.17,0-.78,0-1.56,0-2.34,0-1.87,0-3.75,0-5.62,0-.05.02-.1.03-.16,0-.02,0-.04.01-.06.13,0,.24-.02.35-.02,1.55,0,3.1,0,4.65,0,.11,0,.21.02.32.03.32.02.64.03.96.08,1.1.17,1.72.77,1.97,1.86.07.33.13.67.19,1,.02.14.05.28.08.42.04,0,.06,0,.09,0,.08,0,.15.02.22.01h0c.07,0,.14-.02.21-.03.03,0,.06,0,.09-.01v-7.91h-.57c-.05.24-.09.47-.13.7-.02.1-.04.2-.06.3-.04.21-.09.43-.15.63-.27.88-.88,1.41-1.8,1.55-.27.04-.53.07-.8.09-.18.01-.36.03-.54.03-1.09,0-2.19,0-3.28,0-.46,0-.91,0-1.37,0-.15,0-.29-.02-.43-.02V5.7h.59c1.81,0,3.62,0,5.44,0,.44,0,.89.03,1.33.06.17.01.34.02.51.04.47.06.87.21,1.21.43.3.2.55.46.74.8.09.16.18.31.24.5.16.49.29,1,.43,1.5.04.14.09.27.14.43h0c.07,0,.13,0,.2-.01.15,0,.29-.02.44-.02-.04-.78-.08-1.54-.12-2.3,0-.13-.01-.27-.02-.4-.04-.76-.08-1.52-.12-2.27h-17.51v.58h0c.11,0,.22,0,.32,0,.1,0,.2,0,.3.01.49.07,1,.12,1.48.25.24.07.43.19.58.34.05.05.1.11.14.17.12.17.21.37.23.61.03.24.06.47.09.71,0,.04,0,.08.01.12.02.24.04.48.04.72.01,4.97.02,9.94.01,14.91,0,.51-.03,1.02-.08,1.53-.02.2-.03.39-.05.59-.06.62-.43,1.04-1,1.23-.27.09-.56.14-.84.18-.19.03-.38.06-.57.08-.09.01-.18.01-.28.01-.02,0-.03,0-.05,0-.11,0-.22,0-.34,0h0v.67h17.51c.65-1.9,1.3-3.79,1.96-5.72h-.68c-.1.18-.18.35-.28.51Zm-23.75-5.56c-1.35-.93-2.82-1.68-4.23-2.52-1.14-.68-2.29-1.34-3.39-2.07-.54-.36-1.01-.83-1.46-1.29-.47-.49-.67-1.11-.66-1.79.02-1.19.62-2.05,1.55-2.71.96-.68,2.05-.88,3.2-.68,1.87.32,3.41,1.17,4.41,2.84.48.8.75,1.66.93,2.56.07.34.13.68.21,1.05.22-.01.4-.02.58-.03V3.93c-.12,0-.21-.02-.3-.02-.09,0-.18.01-.28.02-.07.17-.13.33-.19.48-.28.69-.63.89-1.36.72-.36-.08-.72-.21-1.06-.36-.95-.42-1.92-.72-2.95-.82-1.82-.17-3.54.14-5.04,1.25-2.08,1.53-2.95,4.1-2.17,6.45.43,1.31,1.28,2.33,2.39,3.09,1.23.84,2.52,1.6,3.79,2.38,1.15.7,2.33,1.34,3.45,2.07.55.36,1.05.84,1.48,1.35.59.7.81,1.55.7,2.46-.2,1.6-1.14,2.59-2.63,3.09-.77.26-1.58.28-2.38.23-1.7-.12-3.18-.74-4.39-1.97-.76-.78-1.12-1.75-1.41-2.76-.16-.55-.27-1.11-.41-1.69-.21.01-.39.02-.58.03v7.75h.59c.07-.25.13-.48.21-.71.13-.35.39-.54.77-.53.17,0,.34.02.5.06.65.18,1.29.35,1.93.56,1.18.39,2.36.67,3.62.65,1.03-.02,2.06-.08,3.02-.49,2.39-1.01,3.98-2.71,4.21-5.39.19-2.3-.78-4.13-2.65-5.42Zm-43.94-11.4c.5.04.99.03,1.46.11,1.02.17,1.57.67,1.66,1.67.05.52.1,1.04.1,1.57.01,3.21.02,6.43,0,9.64,0,1.04-.1,2.09-.21,3.13-.2,1.86-1.14,3.25-2.79,4.14-1.76.95-3.64,1.24-5.59.82-1.99-.43-3.33-1.63-3.82-3.65-.31-1.27-.46-2.57-.46-3.89-.01-3.44,0-6.88,0-10.32,0-.43.06-.86.1-1.28.09-.98.67-1.75,1.89-1.85.44-.03.88-.05,1.33-.08v-.56h-9.87v.56c.52.04,1,.04,1.48.11.83.12,1.44.55,1.6,1.41.12.6.21,1.22.21,1.83.02,3.05-.01,6.09.02,9.14.01,1.34.06,2.69.22,4.02.33,2.73,1.85,4.64,4.41,5.57,2.58.93,5.26.96,7.87.14,2.69-.84,4.41-2.67,4.87-5.51.19-1.14.29-2.3.31-3.45.04-3.16,0-6.32.02-9.47,0-.61.04-1.23.11-1.84.13-1.02.84-1.71,1.88-1.85.4-.05.82-.06,1.24-.09.01-.08.03-.15.03-.22,0-.11,0-.22,0-.34h-8.08v.55Zm9.74-.55c-.1,1.79-.2,3.55-.29,5.32h.7c.02-.19.03-.35.06-.51.27-1.83,1.2-3.39,3.66-3.37,1.04,0,2.09-.01,3.14-.01.1,0,.21.03.34.04v.37c0,5.61,0,11.22,0,16.82,0,.52-.04,1.05-.09,1.57-.11,1.09-.65,1.64-1.74,1.78-.46.06-.92.06-1.4.09,0,.12-.02.21-.01.3,0,.11.02.21.03.32h9.6v-.62c-.53-.04-1.04-.03-1.53-.12-1.02-.19-1.4-.67-1.48-1.43-.07-.63-.14-1.26-.14-1.9-.01-5.59,0-11.18,0-16.77,0-.14.02-.28.03-.43,1.35,0,2.65-.06,3.95.02,1.63.1,2.77,1.14,3.14,2.73.09.38.16.76.25,1.16.23,0,.43-.02.65-.03-.09-1.81-.17-3.56-.26-5.32h-18.6Z"/></g></svg>