<?xml version="1.0" encoding="utf-8"?>
<!-- Generator: Adobe Illustrator 21.0.2, SVG Export Plug-In . SVG Version: 6.00 Build 0)  -->
<svg version="1.1" id="Layer_1" xmlns="http://www.w3.org/2000/svg" xmlns:xlink="http://www.w3.org/1999/xlink" x="0px" y="0px"
	 viewBox="0 0 168.3 71" style="enable-background:new 0 0 168.3 71;" xml:space="preserve">
<style type="text/css">
	.st0{fill:#3E4F5C;}
	.st1{fill-rule:evenodd;clip-rule:evenodd;fill:#00A8FF;}
</style>
<path class="st0" d="M14.3,67.5l-5.1-12H6.8l-5.1,12h2.7l1.1-2.7h5l1.1,2.7H14.3L14.3,67.5z M9.5,62.5H6.4l1.6-3.9L9.5,62.5
	L9.5,62.5z M44.4,65.8v-5.2h-5.2v2.3h2.6v1.7c-0.7,0.5-1.5,0.7-2.5,0.7c-0.5,0-1-0.1-1.5-0.3c-0.4-0.2-0.8-0.5-1.1-0.8
	c-0.3-0.3-0.6-0.7-0.7-1.2c-0.2-0.5-0.3-1-0.3-1.5v0c0-0.5,0.1-1,0.3-1.4c0.2-0.4,0.4-0.8,0.7-1.2c0.3-0.3,0.7-0.6,1.1-0.8
	c0.4-0.2,0.9-0.3,1.3-0.3c0.3,0,0.7,0,0.9,0.1c0.3,0.1,0.5,0.1,0.8,0.2c0.2,0.1,0.5,0.2,0.7,0.4c0.2,0.1,0.5,0.3,0.7,0.5l1.6-2
	c-0.3-0.3-0.6-0.5-1-0.7c-0.3-0.2-0.7-0.4-1.1-0.5c-0.4-0.1-0.8-0.2-1.2-0.3c-0.4-0.1-0.9-0.1-1.5-0.1c-0.9,0-1.7,0.2-2.5,0.5
	c-0.8,0.3-1.4,0.8-2,1.3c-0.6,0.6-1,1.2-1.3,2c-0.3,0.7-0.5,1.5-0.5,2.4v0c0,0.9,0.2,1.7,0.5,2.4c0.3,0.7,0.7,1.4,1.3,1.9
	c0.5,0.5,1.2,1,2,1.3c0.8,0.3,1.6,0.5,2.5,0.5c1.1,0,2.1-0.2,2.9-0.6C43.1,66.8,43.8,66.3,44.4,65.8L44.4,65.8z M73.4,67.5v-2.3H67
	v-2.5h5.6v-2.3H67v-2.4h6.4v-2.3h-8.9v11.9H73.4L73.4,67.5z M103.8,67.5V55.6h-2.6v7.3l-5.6-7.3h-2.4v11.9h2.6v-7.6l5.8,7.6H103.8
	L103.8,67.5z M134.6,65.6l-1.7-1.7c-0.5,0.4-0.9,0.8-1.4,1c-0.5,0.2-1,0.4-1.7,0.4c-0.5,0-1-0.1-1.4-0.3c-0.4-0.2-0.8-0.5-1.1-0.8
	c-0.3-0.3-0.5-0.7-0.7-1.2c-0.2-0.5-0.3-0.9-0.3-1.4v0c0-0.5,0.1-1,0.3-1.4c0.2-0.4,0.4-0.8,0.7-1.2c0.3-0.3,0.7-0.6,1.1-0.8
	c0.4-0.2,0.9-0.3,1.4-0.3c0.6,0,1.1,0.1,1.6,0.4c0.5,0.2,1,0.6,1.4,1l1.7-1.9c-0.3-0.3-0.6-0.5-0.9-0.7c-0.3-0.2-0.7-0.4-1-0.6
	c-0.4-0.2-0.8-0.3-1.2-0.4c-0.5-0.1-1-0.1-1.5-0.1c-0.9,0-1.8,0.2-2.5,0.5c-0.8,0.3-1.4,0.8-2,1.3c-0.5,0.6-1,1.2-1.3,2
	c-0.3,0.7-0.5,1.5-0.5,2.4v0c0,0.8,0.2,1.6,0.5,2.4c0.3,0.7,0.7,1.4,1.3,1.9c0.5,0.5,1.2,1,1.9,1.3c0.7,0.3,1.6,0.5,2.4,0.5
	c0.6,0,1.1,0,1.6-0.1c0.5-0.1,0.9-0.2,1.3-0.4c0.4-0.2,0.7-0.4,1.1-0.7C134,66.2,134.3,65.9,134.6,65.6L134.6,65.6z M164.7,55.6h-3
	l-2.9,4.8l-2.8-4.8H153l4.6,7.2v4.7h2.6v-4.7L164.7,55.6L164.7,55.6z"/>
<path class="st0" d="M135.6,46.3h29.2v-6.6h-21.9V4.7h-7.3V46.3L135.6,46.3z M33.9,18.7c0-2.1-0.4-4.1-1.1-5.8
	c-0.7-1.7-1.8-3.2-3.2-4.4c-1.4-1.2-3-2.2-5-2.8c-2-0.7-4.2-1-6.6-1H1.7v6.6h15.8c2.7,0,4.9,0.6,6.6,1.9c1.6,1.2,2.4,3.1,2.4,5.6
	c0,2.3-0.8,4.1-2.4,5.5c-1.6,1.4-3.8,2.1-6.6,2.1H1.7v20h7.3V32.9h8.3c2.3,0,4.5-0.3,6.5-0.9c2-0.6,3.8-1.5,5.3-2.7
	c1.5-1.2,2.7-2.7,3.6-4.5C33.5,23.1,33.9,21,33.9,18.7L33.9,18.7z"/>
<path class="st1" d="M74.7,10.8l9.6,9.6l9.6-9.6c8.1-8.1,21.4-8.1,29.5,0l0,0c8.1,8.1,8.1,21.4,0,29.5l0,0c-8.1,8.1-21.4,8.1-29.5,0
	l-6.4-6.4l5.1-5.1l6.4,6.4c5.3,5.3,13.9,5.3,19.2,0l0,0c5.3-5.3,5.3-13.9,0-19.2l0,0c-5.3-5.3-13.9-5.3-19.2,0l-0.8,0.8l-8.8,8.8
	l-5.1,5.1l-5.5,5.5l-4.1,4.1c-8.1,8.1-21.4,8.1-29.5,0l0,0c-8.1-8.1-8.1-21.4,0-29.5l0,0C53.3,2.7,66.6,2.7,74.7,10.8L74.7,10.8z
	 M69.6,15.9l9.6,9.6l-9.6,9.6c-5.3,5.3-13.9,5.3-19.2,0l0,0c-5.3-5.3-5.3-13.9,0-19.2l0,0C55.6,10.6,64.3,10.6,69.6,15.9L69.6,15.9z
	"/>
</svg>
