<?xml version="1.0" encoding="UTF-8"?>
<svg xmlns="http://www.w3.org/2000/svg" id="uuid-e0e68da8-adf3-4467-957b-ec3b05891bbb" width="731.6353" height="200.4385" viewBox="0 0 731.6353 200.4385">
  <g id="uuid-cedb461d-c597-4df2-a8f9-c23a96b08359">
    <g id="uuid-70463aa1-1eee-434c-8dd9-ec389db4c550">
      <path d="M377.9244,76.8904c2.5532-1.8813,5.1353-3.7249,7.6534-5.6521,4.7432-3.6302,12.3243-3.2881,16.5111,1.0161-1.1566,0-2.0951,.0363-3.0301-.0061-4.5181-.2052-7.896,1.5907-10.2343,5.5148-2.7681,4.6454-6.2762,8.5881-11.698,11.1428-2.204,.807-3.9772,1.4507-6.0168,2.1018-4.3969,.0074-8.5274,.0074-13.1927,.0074-1.1993,1.2791-1.0151,3.123,.4878,5.2247,1.8066,1.7485,3.5298,3.2671,5.2375,4.7908-.0154,.005-.0107-.027-.0029,.1726,.2381,.2901,.4683,.3806,.6786,.4824-.0199,.0112-.0023-.031,.0175,.1622,.2481,.285,.4764,.3769,.6806,.4817-.0241,.0129-.0279-.0417,.0474,.1632,.4711,.3111,.8669,.4174,1.2472,.5321-.0155,.0086-.0082-.0261,.0062,.1689,.2456,.2843,.4768,.3737,.6851,.4789-.0228,.0159-.0144-.039,.059,.1864,3.2869,2.232,6.6394,3.6146,10.8344,2.5725,2.6023-.2135,4.9057-.4447,7.2579-.5723,.0487,.1036,.2731,.1458,.2731,.1458,0,0,.1556-.1679,.4023-.0726,2.821,1.6377,5.3952,3.1801,7.9695,4.7225,.6777,.9303,1.3553,1.8606,2.033,2.7909-.1644,.1883-.3289,.3765-.4933,.5648-.6095-.3233-1.2506-.5988-1.8232-.9777-3.7428-2.4766-7.5304-2.7127-11.6622-.7955-7.0109,3.2531-14.4311,4.0802-21.738,1.537-4.1836-1.4561-7.9311-4.1655-12.2111-6.4935-2.2842,.9921-2.8594,3.2732-2.0865,6.0321,.895,3.1949,1.5655,6.5156,2.949,9.4959,2.0175,4.3462,6.2601,6.0024,10.5156,7.5516,7.3645,2.6811,10.0935,6.7188,10.1494,15.1114-.7601-1.1574-1.3186-1.9061-1.771-2.7143-2.1226-3.7924-5.1969-5.8707-9.6797-5.9271-9.8728-.1243-17.9894-3.7375-23.1949-12.489-1.3972-2.3489-2.2601-5.0156-3.3634-7.5373-3.2492-.4643-4.774,1.3018-5.6781,4.1632-1.7299,5.4754-3.3073,10.9097,.0602,16.8104,2.6031,4.2258,5.0134,8.0482,7.4237,11.8706-.0256,3.7741-.3997,7.4482-3.4852,11.3114,1.8094-8.1803-1.9845-12.609-8.3406-16.0267-.5858-.3738-.8597-.476-1.1335-.5782,0,0,.0096,.0332-.0363-.1838-2.6682-3.8093-5.2904-7.4017-7.9304-11.2702-.4907-5.6686-.9637-11.061-1.4888-17.0482-.4378-.025-2.1654-.6783-3.0213-.0814-5.1361,3.5811-9.7173,7.7074-10.719,14.7383,.3743,3.2479,.8309,6.2052,1.2874,9.1626-.1195,7.5354-3.097,12.6597-8.7931,14.5901,3.9638-5.2771,4.7693-10.5465,.9235-16.4319-1.1452-3.3789-2.0996-6.3446-3.0059-9.628-.518-8.5257,2.149-15.5758,8.3136-21.9138-1.5929-1.0484-2.9167-2.6728-4.1605-2.6138-7.1092,.3377-16.2485,2.8107-18.6859,12.0893-1.434,5.4587-4.7248,9.1524-10.3055,11.0933-2.9862,.1418-5.6988,.2474-8.4114,.353,7.8756-1.7009,11.1218-5.3339,11.605-13.039,.75-11.9589,6.4117-20.2361,17.9979-24.0992,.4161-.1387,.817-.3382,1.2005-.5531,.1801-.101,.3018-.306,.4911-.5077,.307-3.0731-1.3051-4.8802-4.0532-6.0161-4.5202-1.8684-9.0898-1.941-13.6205-.2594-3.0057,1.1157-5.8103,2.8025-8.8486,3.7926-3.2214,1.0498-6.6129,1.5779-10.4376,2.2299-3.2379-1.0417-5.9683-1.9795-8.6986-2.9172,.1199-.1462,.2397-.2923,.3597-.4385,3.3522-.3507,6.7045-.7014,10.2961-1.0562,4.8389-3.7174,9.4385-7.4307,14.1988-11.2867,1.6573-.9764,3.1538-1.8101,4.9601-2.616,5.2143-.0286,10.1196-.054,15.0222-.1831,.5739-.0151,1.1326-.603,1.7732-1.1767,.1506-1.1953,.5688-2.2802,.2476-3.0608-2.4762-6.0177-11.701-11.5208-18.2547-11.07-3.4948,.2404-6.9941,.4156-10.6698,.509-2.126-1.1537-4.0735-2.1961-6.021-3.2386-1.0076-1.3759-2.0152-2.7519-3.0053-4.104,.3975-.3016,.5323-.431,.5522-.4152,5.586,4.4224,10.8497,2.6991,16.6411-.0863,9.5286-4.5827,18.6443-2.8207,26.9205,3.6038,.3493,.2711,.6372,.6319,1.009,.8613,.6491,.4005,1.3413,.7313,1.9755,1.0699,2.8687-1.29,3.163-3.4274,2.699-6.3091-1.4092-8.752-5.9093-14.4129-14.6252-17.0608-6.8922-2.0938-10.2773-8.5691-8.6571-15.1738,.4245,.7938,.8017,1.4349,1.1197,2.1042,2.1628,4.5531,5.6762,6.9068,10.7965,6.936,8.4825,.0484,15.7314,3.0142,20.8201,9.9632,2.1243,2.9009,3.451,6.3861,5.2769,9.8658,2.4709,.3683,3.9458-.9256,4.989-3.6054,3.1247-8.0269,2.7926-15.1709-3.4713-21.8551-5.2855-5.6402-5.2421-11.935-.5165-18.0181,0,.8413,.0458,1.3296-.007,1.8071-.5867,5.3064,1.4135,9.1563,6.0482,11.9556,8.6519,5.2257,13.316,12.8621,12.9729,23.1716-.0732,2.1991-.512,4.3859-.7972,6.699,1.8459,1.5023,3.4951,1.4268,5.5023-.1108,7.301-5.5927,10.6181-12.4329,8.2278-21.7893-1.7036-6.6683,1.5894-12.332,8.606-15.4403-.4944,.7863-.7139,1.189-.9832,1.5552-3.2376,4.4043-3.4869,8.8557-.6913,13.6626,3.8693,6.6529,5.054,13.8481,2.3346,21.1416-1.4429,3.8699-3.9362,7.3483-6.129,11.318,2.1664,3.6514,2.1616,3.6357,6.6744,2.2404,1.4828-.4585,3.0115-.7681,4.4957-1.2224,5.1003-1.5609,8.7366-4.6853,10.4864-9.8438,.5692-1.6781,1.2201-3.3343,1.9325-4.9571,2.3087-5.2594,7.8152-8.0883,14.6499-7.2751-1.0311,.5976-1.7116,1.0494-2.4394,1.4044-4.4318,2.1619-6.5001,5.7096-6.7507,10.6218-.163,3.1951-.8601,6.363-1.422,10.0173-2.0986,3.3303-4.0933,6.1863-6.2897,9.1718-4.0067,2.4913-7.8116,4.8529-11.9438,7.4178,.148,3.8371,5.3231,7.1457,10.9546,6.5006,3.1073,1.8728,5.6999,.6687,8.1852-1.1556m-79.6001,24.1254s.0396-.0739,.0555,.3197c.2194,.104,.4388,.208,.5911,.3057,0,0,.061-.0286,.0175,.4399,.693,.509,1.386,1.018,2.0632,1.5946,0,0-.0201-.0665-.016,.3331,.2321,.0897,.4642,.1794,.6352,.2512,0,0,.05-.0394,.0786,.4321,5.9755,5.4235,13.2076,7.7701,21.0539,7.5189,5.1875-.1661,10.6277-.611,14.8199-4.5156,0,0-.0422-.0431,.3898,.0195,.3037-.268,.6074-.536,.8907-.7419,0,0-.0509-.0409,.4004,.0254,.5366-.4699,1.0731-.9398,1.6379-1.3549,0,0-.0595,.0162,.3877-.1156,.0954-.2865,.1908-.5729,.5828-1.1687,1.8042-1.8327,3.8336-3.4946,5.3749-5.5267,7.9578-10.4922,8.571-24.3129,1.7181-35.2418-7.083-11.2958-19.9784-16.9212-32.9105-14.4926-15.0466,2.8259-25.7845,17.0948-25.8294,31.1178-.0176,5.4895,1.9895,10.3335,4.1348,15.7029,1.1316,1.4479,2.2632,2.8959,3.3487,4.3881,0,0-.017-.0617-.0177,.3361,.2201,.1076,.4402,.2153,.5929,.3727h0Z" style="fill:#f9eb06;"></path>
      <path d="M333.4653,149.6737c-2.6479-3.8477-5.0581-7.6701-7.5008-11.738,7.0699,2.2214,14.3344,4.3055,21.2406,7.2345,14.6095,6.1958,29.1343,12.5406,44.7609,15.8314,19.4341,4.0927,39.0276,5.5719,58.8686,4.1045,23.4903-1.7373,46.325-6.3411,68.1222-15.3699,7.9822-3.3063,15.5551-7.5873,23.462-11.0914,18.816-8.3386,38.5095-13.0212,59.0866-14.4584,19.6714-1.3739,39.0006,.2593,58.0216,5.2141,23.7703,6.192,45.1157,17.2039,63.8643,33.1417,.9285,.7894,1.7874,1.6648,2.636,2.5415,.208,.2149,.2471,.5933,.6949,1.757-1.5933-.9297-2.5964-1.4255-3.5043-2.0578-20.5284-14.2982-43.1475-23.6743-67.7302-28.0383-18.2-3.231-36.4837-3.7107-54.9497-1.3345-23.4601,3.0189-45.1384,10.6526-65.8753,21.8396-15.4217,8.3196-32.2178,13.0872-49.4116,16.3486-14.8651,2.8197-29.8725,4.089-44.9974,3.9246-31.1864-.3389-60.9138-6.9025-89.0178-20.6433-5.6613-2.768-11.6795-4.8061-17.7706-7.2059h0Z" style="fill:#0049aa;"></path>
      <path d="M52.574,92.7321c-3.191,7.4823-6.4033,14.6828-9.283,22.0139-.9484,2.4146-2.2015,3.0569-4.6504,3.0321-2.3314-.0236-3.4609-.6941-4.3937-2.9288-8.3792-20.0738-16.9096-40.0845-25.3995-60.1121-.207-.4882-.4585-.9576-1.1788-1.3834V121.1502H0V42.8386c3.397,0,6.824-.1507,10.2195,.1091,.8189,.0627,1.8401,1.3515,2.2512,2.3005,7.8526,18.128,15.6248,36.2909,23.4237,54.4423,.8269,1.9246,1.7163,3.8221,2.9125,6.4775,1.109-2.4819,1.9722-4.3439,2.779-6.2299,7.814-18.2661,15.6414-36.5266,23.3877-54.8215,.7055-1.6662,1.4974-2.4367,3.3946-2.3281,2.977,.1704,5.971,.0452,9.1287,.0452V121.1693h-7.4495V53.7105c-.2845-.0704-.5691-.1408-.8537-.2112-5.5038,13.0006-11.0076,26.0013-16.6197,39.2328Z" style="fill:#efefef;"></path>
      <path d="M287.4365,128.5202c.9544,2.9657,1.9088,5.9314,2.8878,9.1608-14.0628-1.9585-28.2506-2.5042-42.4673-1.8966-16.654,.7119-33.0112,3.5467-49.2161,7.3925-21.2087,5.0333-41.54,12.6983-61.9391,20.2121-21.2316,7.8204-43.1635,11.9514-65.8657,10.9816-23.7227-1.0134-45.6724-7.4212-64.7263-22.1556-1.4522-1.1229-2.7374-2.4616-4.1003-3.7001l.6403-.7714c1.0687,.7958,2.1274,1.6054,3.2076,2.3851,13.9838,10.0938,29.759,15.73,46.6683,18.1817,30.1967,4.3785,58.7673-1.9958,86.7931-12.9689,17.4241-6.8222,35.1145-13.1123,53.0326-18.4826,17.8249-5.3423,36.168-8.7183,54.8982-9.257,2.1016-.0604,4.1976-.3125,6.6408-.4336,3.0571-.0635,5.7697-.1691,9.057-.2472,8.5461,.5514,16.5177,1.0752,24.4892,1.599v.0002Z" style="fill:#0048a7;"></path>
      <path d="M536.1758,184.9032c-23.6089,10.8222-48.1112,16.2155-73.8701,15.4667-24.922-.7246-48.3924-6.94-70.1727-19.3405,1.0986,.3281,2.2338,.5662,3.2904,.9974,28.3499,11.5691,57.7177,15.5778,88.0778,11.5366,22.8289-3.0388,43.7117-11.6725,64.2159-21.9025,44.8573-22.3805,90.7868-24.4751,137.3621-5.2424,3.909,1.6141,7.634,3.6735,11.4446,5.5261l-.4983,1.0446c-1.2823-.592-2.5409-1.243-3.8505-1.767-13.0316-5.2146-26.5145-8.7675-40.3989-10.7609-13.3536-1.9174-26.7449-2.1825-40.1799-.8068-22.2342,2.2766-43.141,8.8761-62.9815,19.0451-4.0485,2.075-8.1374,4.0713-12.4388,6.2039v-.0003Z" style="fill:#2b8de5;"></path>
      <path d="M560.6741,55.3144c12.4102,9.0376,16.71,22.7478,11.4032,35.8801-5.2791,13.064-18.9003,20.867-32.9782,18.8918-13.9956-1.9638-25.1322-13.0911-26.3707-26.8975-1.0235-11.4097,3.3573-20.7453,12.6649-27.3441,9.4008-6.6649,19.7159-7.4232,30.3785-3.1457,1.6366,.6566,3.1415,1.6419,4.9022,2.6154m5.1773,35.4643c5.1343-11.86,1.7999-23.8328-8.5753-30.7913-9.9347-6.6632-23.4351-5.2733-31.7393,3.2675-8.3039,8.5405-9.4611,21.2681-2.5835,30.7959,11.0505,15.3088,33.9118,13.8362,42.8982-3.2721h0Z" style="fill:#eeedee;"></path>
      <path d="M606.7567,109.9443c-15.5068-2.9633-26.3229-15.9974-25.6555-30.6192,.6904-15.1241,12.4213-27.6416,27.172-28.9941,16.0505-1.4716,30.3033,8.2831,33.7187,23.0773,4.8197,20.8774-12.8465,39.3709-35.2352,36.5359m-16.9366-40.9135c-2.6038,5.3541-3.6363,10.8937-2.1808,16.7939,3.1859,12.9151,16.7499,21.2431,29.7862,18.2393,13.2903-3.0623,21.6822-15.8795,18.9063-28.8765-2.1169-9.912-10.4359-17.5087-21.0413-19.2146-9.731-1.5651-19.7218,3.435-25.4704,13.0579Z" style="fill:#eeedee;"></path>
      <path d="M505.1035,85.8115c-3.0223,13.5288-12.8516,22.3538-26.3608,23.2292-7.2753,.4714-14.6062,.0839-22.1489,.0839V51.0002c10.1793,.5682,20.4048-1.2596,30.3175,2.3434,13.1626,4.7842,20.9057,18.4038,18.1922,32.4679m-5.8947-.4691c2.3674-12.4613-3.9426-24.2308-15.6035-27.1868-6.7289-1.7057-13.9107-1.6247-21.1003-2.3698v48.401c5.9959-.3064,11.89-.135,17.626-1.0054,9.9627-1.5119,16.1809-7.6351,19.0778-17.839Z" style="fill:#ecebeb;"></path>
      <path d="M682.3581,78.4028c6.8451-9.0931,2.7819-19.7194-8.2296-21.4008-5.106-.7797-10.3648-.5576-15.9447-.807v53.0429h-5.7653V51.0448c8.8468,.4199,17.8431-1.1608,26.6,1.3761,8.2731,2.3968,13.0042,9.6814,12.644,18.5904-.3217,7.9563-5.9915,14.4878-14.1827,16.3364-.7147,.1613-1.4312,.3145-2.624,.576,5.391,7.1846,10.5465,14.0554,15.9804,21.297-4.248,.5336-7.3521,.7174-10.027-3.2934-5.1426-7.7108-11.0063-14.9405-16.8768-22.7779,6.7273-.368,13.26,.3643,18.4256-4.7468v.0002Z" style="fill:#ecebeb;"></path>
      <path d="M175.6377,171.0623c18.0258-6.7052,35.9424-12.9154,54.8175-15.6027,14.4139-2.0521,28.8075-2.13,42.9466,2.5697-1.7993-.1173-3.614-.1232-5.3955-.3692-17.0671-2.357-33.7793-.2024-50.3417,3.8945-21.8183,5.397-42.4946,14.1204-63.5038,21.8662-17.5081,6.455-35.2072,12.195-53.7785,14.7083-19.0117,2.5727-37.3737-.0132-55.0908-7.3092-4.1889-1.7251-8.3581-3.4982-12.3904-5.8991,1.3424,.2656,2.7612,.336,4.0159,.8262,17.9068,6.9966,36.3555,10.6748,55.6545,9.2229,13.3465-1.004,26.3094-4.0706,38.9495-8.2193,14.7425-4.8387,29.2572-10.3714,44.1167-15.6883h0Z" style="fill:#0048a7;"></path>
      <path d="M182.6403,94.3662V51.2641h31.6537v5.1844h-25.7339v20.6883h24.9185v5.4488h-24.8472v21.3144h25.6813v5.4004h-31.6724v-14.9342h0Z" style="fill:#eeedee;"></path>
      <path d="M700.8478,75.1172c-4.418-6.3817-4.3599-13.4711,.0042-19.0247,4.2983-5.4697,12.865-7.4994,19.726-4.7455,5.9788,2.3998,10.365,9.5112,9.323,14.4401h-5.6673c-.2774-1.0183-.4967-1.974-.798-2.9032-1.63-5.0265-7.1082-8.1228-12.1494-6.8861-5.3568,1.314-8.9966,6.6274-7.4154,11.9277,.6722,2.2533,2.7616,4.6074,4.8457,5.79,2.9248,1.6595,6.4233,2.3444,9.7153,3.3136,9.3939,2.7653,14.546,10.4247,12.8997,19.2933-1.6122,8.6858-9.8669,14.7191-19.1466,13.9939-9.451-.7386-16.1029-7.6226-16.3403-17.1282h5.9887c1.0286,5.9186,3.8978,10.3016,10.3218,11.3425,5.735,.9294,11.2361-2.4842,13.0173-8.0019,1.6497-5.1102-.6266-10.4785-5.9141-13.004-2.7734-1.3247-5.9604-1.7712-8.7673-3.0415-3.2747-1.4819-6.3383-3.4303-9.6435-5.366h.0002Z" style="fill:#eeedee;"></path>
      <path d="M24.2638,125.069c2.6197,2.8262,5.0789,5.8243,7.889,8.4464,8.6432,8.0646,19.0034,12.2516,30.7023,13.7502,22.5417,2.8875,43.2277-2.7101,63.2117-12.6529,12.1742-6.0572,25.2023-8.9617,38.9056-8.3972,3.3106,.1364,6.6317,.0203,10.0126,.6942-3.4598,.5301-6.9025,1.2675-10.3823,1.5538-13.7986,1.1355-26.0562,6.6978-38.1847,12.8175-17.6959,8.929-36.4979,13.0917-56.3019,11.6916-18.353-1.2976-34.0604-7.8805-44.3181-24.1978-.6392-1.0167-1.0535-2.1748-1.5399-3.5004,.0324-.2332,.0057-.2054,.0057-.2054h0Z" style="fill:#056cca;"></path>
      <path d="M251.4408,52.1843c2.2896,1.0817,4.2372,2.1241,6.5356,3.4544,1.8992,2.5131,4.0345,4.5439,4.8523,7.0114,1.1077,3.3421,1.2052,7.0191,1.736,10.5524-4.5996,3.7133-9.1991,7.4266-14.1224,10.9476-.4855-.8725-.6473-1.5529-.8091-2.2332,10.4512-3.9404,11.2286-15.8502,4.947-21.2279-2.4417-2.0904-5.9932-3.4711-9.215-3.924-4.6489-.6535-9.458-.1671-14.5261-.1671v52.6923h-5.7445V50.6273c8.6789,.5066,17.3415,1.0122,26.3462,1.557h0Z" style="fill:#eeedee;"></path>
      <path d="M385.1047,105.7555c-2.3035,.2312-4.607,.4624-7.1876,.4958-.2864-.3182-.2957-.4388-.253-.7907-3.6882-4.2496-5.8506-8.9707-6.288-14.4604,1.7732-.6437,3.5464-1.2874,5.5455-1.9503,.4706,1.5129,.6172,3.0683,.977,4.5728,1.5282,6.3911,6.7777,10.5712,13.1925,10.583,6.5376,.012,11.8393-4.2932,13.1813-10.9454,.4781-2.37,.654-4.8353,.6678-7.2588,.0662-11.6386,.0297-23.2778,.0297-35.1911h5.7552c.0745,.8492,.2123,1.6953,.2134,2.5415,.0142,11.0886,.0306,22.1773,.0036,33.2659-.0328,13.4434-4.4321,19.4467-17.1147,23.7265-2.6035-1.232-5.1777-2.7743-8.0673-4.4651-.4336-.2088-.547-.2006-.6555-.1237h0Z" style="fill:#eeedee;"></path>
      <path d="M152.1,53.9048c.0001,16.7208,.0001,33.1307,.0001,49.9763h23.9786v5.4384h-29.6227V50.9449c1.8867,1.2134,5.4661-2.3203,5.6439,2.96h0Z" style="fill:#e9e8e8;"></path>
      <path d="M436.856,57.1806c-.0726,17.5102-.0726,34.705-.0726,52.1072h-5.8496V56.5343h-13.31v-5.3135h32.2219v4.9271c-4.2356,.2352-8.5764,.4762-12.9897,1.0327h0Z" style="fill:#ecebeb;"></path>
      <path d="M109.688,105.5761V51.254h5.8471v52.4702h23.9793v5.5879h-29.8266v-3.7359h.0002Z" style="fill:#e9e8e8;"></path>
      <path d="M97.8557,79.7001v29.5292h-5.8037V51.2732h5.8037v28.4269Z" style="fill:#e9e8e8;"></path>
      <path d="M249.358,81.9711c.4371,.6263,.5988,1.3066,.8449,2.1833-3.2679,.547-6.6202,.8977-9.9724,1.2484-.1199,.1462-.2398,.2923-.3597,.4385,2.7304,.9377,5.4608,1.8755,8.3866,2.8783,5.1385,6.8079,10.0815,13.5507,15.1029,20.4004-4.6182,1.1976-7.6304,.0866-10.279-3.8256-5.062-7.4771-10.7315-14.5427-16.2139-21.866,4.2951-.4933,8.2552-.9482,12.4906-1.4571v-.0002Z" style="fill:#ecebeb;"></path>
      <path d="M298.6344,139.6652c-.731-2.9504-1.1875-5.9077-1.3066-9.1056,5.2222,.712,10.1069,1.6647,14.9916,2.6174,2.6223,3.5924,5.2445,7.1849,7.93,10.9942-3.4403-.5677-6.942-1.3602-10.4477-2.1348-3.6289-.8018-7.2617-1.5861-11.1672-2.3711h0Z" style="fill:#0049aa;"></path>
      <path d="M370.9303,63.998c1.9946-2.856,3.9892-5.712,5.987-8.7173,.0703,5.8414,.1214,11.8324,.2182,17.8226,.0193,1.1964,.2128,2.3899,.5575,3.6859-2.2538,1.9255-4.8464,3.1296-7.6622,1.2137,.5358-.804,1.04-1.3088,1.0409-1.8145,.0065-4.0634-.0819-8.127-.1414-12.1904Z" style="fill:#ecebeb;"></path>
      <path d="M269.6855,70.4438c5.0386-2.6366,10.5591-2.1949,16.4226-1.0317-.2678,.2456-.8265,.8335-1.4004,.8486-4.9026,.1292-9.8079,.1545-15.0222,.1831h0Z" style="fill:#f9eb06;"></path>
    </g>
  </g>
</svg>
