<?xml version="1.0" encoding="UTF-8"?>
<svg id="uuid-c353412e-be3f-45f2-99a3-3b285856e30f" data-name="Layer 1" xmlns="http://www.w3.org/2000/svg" viewBox="0 0 745.92 219.36">
  <polygon points="3.28 139.86 31.72 146.16 54.67 139.86 77.5 146.16 77.5 142.32 112.61 142.32 112.61 146.16 132.17 141.19 155.28 146.16 185.5 139.86 185.5 161.52 94.8 215.86 3.28 161.52 3.28 139.86" fill="#88b4c4" fill-rule="evenodd"/>
  <polygon points="3.28 57.64 94.5 4.75 185.5 57.64 185.5 107.86 157.94 81.64 141.5 98 94.8 47.86 52.61 90.97 35.89 72.3 3.28 103.42 3.28 57.64" fill="#83d0f4" fill-rule="evenodd"/>
  <polygon points="3.28 139.86 31.72 146.16 54.67 139.86 77.5 146.16 77.5 142.32 112.61 142.32 112.61 146.16 134.95 139.86 155.28 146.16 185.5 139.86 185.5 107.86 157.94 81.64 141.5 98 94.8 50.53 52.61 90.97 33.5 74.53 3.28 103.42 3.28 139.86" fill="#faa930" fill-rule="evenodd"/>
  <path d="M189.59,164.64l-94.79,54.72L0,164.64h0V54.72h.07L94.8,0l94.73,54.72h.07v109.92h0s0,0,0,0ZM153.74,176.94c-7.8-.72-11.14-3.42-18.38-3.42-8.34,0-16.95,4.56-19.2,4.56v20.56l37.58-21.69ZM80.64,202.79l14.16,8.17,14.16-8.17v-11.51h-28.32v11.51ZM80.64,184.08h28.32v-15.36h-28.32v15.36ZM80.64,161.52h28.32v-15.36h-28.32v15.36ZM73.44,198.64v-20.56c-2.25,0-10.86-4.56-19.2-4.56-7.3,0-10.41,2.75-18.35,3.44l37.55,21.67ZM7.2,160.4l10.48,6.05c4.89,1.53,9.39,3.47,14.96,3.47,9.18,0,11.88-3.6,21.6-3.6s19.2,4.56,19.2,4.56v-21.36c-2.25,0-10.86-4.56-19.2-4.56s-10.59,3.6-21.6,3.6-16.44-5.28-25.44-5.28v17.12ZM7.2,117.12h14.89l25.37-25.29-13.14-12.94h0s-27.12,26.95-27.12,26.95v11.29ZM182.4,59L94.8,8.4,7.2,59v36.58l27.1-26.92.02.02v-.02l.02-.02,18.29,18.04,42.15-42.02.02.02v-.02l.02-.02,47.25,46.95,15.59-15.49.02.02v-.02l.02-.02,24.7,24.51v-41.58ZM182.4,110.85l-24.72-24.53h0s-34.08,33.86-34.08,33.86l-5.16-5.13,18.46-18.34-42.1-41.84h0S25.17,124.32,25.17,124.32H7.2v11.76c11.13,0,16.26,5.28,25.44,5.28s11.88-3.6,21.6-3.6,19.2,4.56,19.2,4.56v-12.96h7.2v9.6h28.32v-9.6h7.2v12.96s9.48-4.56,19.2-4.56,12.42,3.6,21.6,3.6,14.31-5.28,25.44-5.28v-25.23ZM182.4,143.28c-9,0-14.43,5.28-25.44,5.28s-13.26-3.6-21.6-3.6-16.95,4.56-19.2,4.56v21.36s9.48-4.56,19.2-4.56,12.42,3.6,21.6,3.6c5.37,0,9.95-1.81,14.68-3.31l10.76-6.21v-17.12Z" fill="#434243" fill-rule="evenodd"/>
  <g>
    <path d="M228.49,109.81v-10.09h49.58c3.16,0,4.47-1.62,4.47-4.7v-2.46c0-2.85-1.23-4.62-4.39-4.62h-37.57c-8.85,0-12.09-4.23-12.09-11.86v-6.62c0-7.62,3.23-11.78,12.09-11.78h52.74v10.09h-48.35c-3.23,0-4.47,1.54-4.47,4.54v2.08c0,2.93,1.23,4.62,4.47,4.62h37.5c8.93,0,12.17,4.23,12.17,11.86v7.16c0,7.62-3.23,11.78-12.17,11.78h-53.97Z" fill="#434243"/>
    <path d="M317.57,109.81c-10.86,0-15.94-5.62-15.94-16.94v-35.19h12.09v33.96c0,4.62,2.08,7.01,6.39,7.01h38.96v11.16h-41.5Z" fill="#434243"/>
    <path d="M380.17,109.81c-10.93,0-16.02-5.62-16.02-16.94v-18.25c0-11.32,5.08-16.94,16.02-16.94h47.66v11.09h-45.04c-4.47,0-6.47,2.31-6.47,7.08v15.78c0,4.62,2,7.01,6.47,7.01h45.04v11.16h-47.66Z" fill="#434243"/>
    <path d="M475.81,96.87v12.94h-12.09v-52.13h54.59c8.93,0,12.09,4.16,12.09,11.78v14.63c0,9.01-3.16,12.78-12.09,12.78h-42.5ZM518.31,72.31c0-3-1.23-4.54-4.39-4.54h-38.11v19.25h38.11c3.16,0,4.39-1.54,4.39-4.93v-9.78Z" fill="#434243"/>
    <path d="M551.81,109.81c-10.93,0-16.01-5.62-16.01-16.94v-18.25c0-11.32,5.08-16.94,16.01-16.94h36.42c10.93,0,15.94,5.62,15.94,16.94v18.25c0,11.32-5,16.94-15.94,16.94h-36.42ZM592.07,75.85c0-4.77-2-7.08-6.47-7.08h-31.18c-4.47,0-6.47,2.31-6.47,7.08v15.78c0,4.62,2,7.01,6.47,7.01h31.18c4.47,0,6.47-2.39,6.47-7.01v-15.78Z" fill="#434243"/>
    <path d="M627.19,109.81c-10.93,0-16.01-5.62-16.01-16.94v-18.25c0-11.32,5.08-16.94,16.01-16.94h36.42c10.93,0,15.94,5.62,15.94,16.94v18.25c0,11.32-5,16.94-15.94,16.94h-36.42ZM667.46,75.85c0-4.77-2-7.08-6.47-7.08h-31.18c-4.47,0-6.47,2.31-6.47,7.08v15.78c0,4.62,2,7.01,6.47,7.01h31.18c4.47,0,6.47-2.39,6.47-7.01v-15.78Z" fill="#434243"/>
    <path d="M702.8,109.81c-10.86,0-15.94-5.62-15.94-16.94v-35.19h12.09v33.96c0,4.62,2.08,7.01,6.39,7.01h38.96v11.16h-41.5Z" fill="#434243"/>
  </g>
  <g>
    <path d="M230,157.53l.93-1.82c1.6,1.57,4.45,2.72,7.39,2.72,4.19,0,6.02-1.76,6.02-3.97,0-6.14-13.79-2.37-13.79-10.66,0-3.3,2.56-6.14,8.26-6.14,2.53,0,5.15.74,6.94,1.98l-.8,1.89c-1.92-1.25-4.16-1.86-6.14-1.86-4.1,0-5.92,1.82-5.92,4.06,0,6.14,13.79,2.43,13.79,10.59,0,3.3-2.62,6.11-8.35,6.11-3.36,0-6.66-1.18-8.32-2.91Z" fill="#434243"/>
    <path d="M330.35,158.2v2.05h-15.84v-22.4h15.36v2.05h-12.99v7.97h11.58v2.02h-11.58v8.32h13.47Z" fill="#434243"/>
    <path d="M413.9,160.25l-5.12-7.2c-.58.06-1.15.1-1.79.1h-6.02v7.1h-2.37v-22.4h8.38c5.7,0,9.15,2.88,9.15,7.68,0,3.52-1.86,5.98-5.12,7.04l5.47,7.68h-2.59ZM413.77,145.53c0-3.58-2.37-5.63-6.85-5.63h-5.95v11.23h5.95c4.48,0,6.85-2.08,6.85-5.6Z" fill="#434243"/>
    <path d="M503.05,137.85l-9.92,22.4h-2.34l-9.92-22.4h2.56l8.58,19.45,8.64-19.45h2.4Z" fill="#434243"/>
    <path d="M568.97,137.85h2.37v22.4h-2.37v-22.4Z" fill="#434243"/>
    <path d="M639.34,149.05c0-6.56,4.99-11.39,11.74-11.39,3.26,0,6.21,1.09,8.19,3.26l-1.5,1.5c-1.82-1.86-4.06-2.66-6.62-2.66-5.41,0-9.47,3.97-9.47,9.28s4.06,9.28,9.47,9.28c2.56,0,4.8-.8,6.62-2.69l1.5,1.5c-1.98,2.18-4.93,3.3-8.22,3.3-6.72,0-11.71-4.83-11.71-11.39Z" fill="#434243"/>
    <path d="M742.86,158.2v2.05h-15.84v-22.4h15.36v2.05h-12.99v7.97h11.58v2.02h-11.58v8.32h13.47Z" fill="#434243"/>
  </g>
</svg>