<svg width="202" height="49" viewBox="0 0 202 49" fill="none" xmlns="http://www.w3.org/2000/svg">
<path d="M8.32024 47.0871C8.15478 47.4705 7.92476 47.7974 7.63016 48.0557C7.33556 48.318 6.98043 48.5117 6.56073 48.6408C6.14507 48.774 5.67694 48.8386 5.16846 48.8386H0.826172V39.2864H5.20881C6.13699 39.2864 6.87551 39.5002 7.42031 39.9361C7.96915 40.3679 8.23953 40.9934 8.23953 41.8126C8.23953 42.2202 8.15075 42.5834 7.97318 42.9022C7.79562 43.2211 7.54945 43.4753 7.23064 43.665C7.61402 43.8385 7.92879 44.0968 8.18303 44.4438C8.43727 44.7869 8.56641 45.2227 8.56641 45.7514C8.56641 46.28 8.4857 46.6957 8.32024 47.0831M6.02803 41.292C5.84643 41.1387 5.5478 41.062 5.1281 41.062H2.69868V42.8659H5.22495C5.62448 42.8659 5.90293 42.7812 6.06435 42.6157C6.22578 42.4503 6.30245 42.2323 6.30245 41.9741C6.30245 41.6754 6.21367 41.4494 6.02803 41.2961M5.23302 44.5528H2.69465V47.0226H5.23302C5.69712 47.0226 6.04014 46.9096 6.2621 46.6876C6.48405 46.4657 6.59705 46.163 6.59705 45.7796C6.59705 44.9604 6.14103 44.5528 5.23302 44.5528Z" fill="#11B4D9"/>
<path d="M22.0129 48.8386L21.2623 46.7078H17.7675L17.0169 48.8386H14.9668L18.6271 39.2864H20.4834L24.1155 48.8386H22.0129ZM19.9911 43.1605C19.8902 42.878 19.7974 42.6076 19.7126 42.3413C19.6239 42.079 19.5593 41.853 19.5149 41.6714C19.4705 41.853 19.4019 42.079 19.3172 42.3413C19.2324 42.6036 19.1356 42.878 19.0347 43.1605L18.4213 44.8958H20.6045L19.9911 43.1605Z" fill="#11B4D9"/>
<path d="M36.4643 42.0709C36.2908 41.744 36.0648 41.4898 35.7904 41.3082C35.516 41.1266 35.1568 41.0338 34.7169 41.0338C34.3618 41.0338 34.043 41.1104 33.7605 41.2598C33.478 41.4091 33.2439 41.6189 33.0502 41.8893C32.8565 42.1557 32.7112 42.4745 32.6144 42.8457C32.5175 43.217 32.4651 43.6206 32.4651 44.0685C32.4651 44.5165 32.5135 44.8958 32.6144 45.2631C32.7153 45.6303 32.8606 45.9531 33.0583 46.2276C33.256 46.4979 33.4941 46.7118 33.7766 46.8692C34.0591 47.0226 34.3779 47.0992 34.7331 47.0992C35.1689 47.0992 35.5281 47.0024 35.8065 46.8127C36.0809 46.623 36.3473 46.3123 36.6056 45.8845L38.2158 46.841C37.8889 47.523 37.4369 48.0557 36.8598 48.431C36.2827 48.8103 35.5563 49 34.6846 49C34.0551 49 33.4861 48.883 32.9776 48.6529C32.4691 48.4229 32.0292 48.092 31.658 47.6642C31.2907 47.2365 31.0082 46.7199 30.8064 46.1146C30.6047 45.5092 30.5078 44.8272 30.5078 44.0726C30.5078 43.3179 30.6127 42.6763 30.8226 42.0709C31.0324 41.4656 31.323 40.949 31.6983 40.5172C32.0696 40.0814 32.5175 39.7464 33.0341 39.5043C33.5506 39.2622 34.1237 39.1411 34.7532 39.1411C35.1972 39.1411 35.6047 39.1935 35.968 39.2985C36.3312 39.4034 36.658 39.5487 36.9446 39.7343C37.2311 39.924 37.4813 40.1459 37.6952 40.4042C37.9091 40.6665 38.0947 40.949 38.2481 41.2557L36.4724 42.075L36.4643 42.0709Z" fill="#11B4D9"/>
<path d="M51.6305 48.8386L49.0356 44.2259L47.5061 46.0298V48.8386H45.6094V39.2864H47.5061V42.3574C47.5061 42.4946 47.5061 42.6359 47.5021 42.7812C47.498 42.9265 47.494 43.0677 47.4859 43.2049C47.4819 43.3421 47.4778 43.447 47.4778 43.5197C47.5424 43.4107 47.6514 43.2614 47.8047 43.0677C47.9581 42.878 48.0993 42.7045 48.2285 42.5511L50.9041 39.2904H53.2084L50.4117 42.5915L53.9186 48.8426H51.6264L51.6305 48.8386Z" fill="#11B4D9"/>
<path d="M65.0087 45.0613V48.8426H63.112V45.1057L59.4961 39.2904H61.6955L63.0474 41.5544C63.1322 41.6996 63.2209 41.8611 63.3259 42.0386C63.4308 42.2162 63.5276 42.3938 63.6245 42.5713C63.7173 42.7489 63.8061 42.9143 63.8868 43.0637C63.9675 43.213 64.0321 43.334 64.0765 43.4228C64.1209 43.334 64.1854 43.213 64.2661 43.0637C64.3469 42.9143 64.4356 42.7489 64.5285 42.5754C64.6213 42.4059 64.7181 42.2283 64.819 42.0507C64.9199 41.8732 65.0127 41.7077 65.1055 41.5503L66.4575 39.2864H68.6286L65.0127 45.0572L65.0087 45.0613Z" fill="#11B4D9"/>
<path d="M80.4043 48.8386L79.6536 46.7078H76.1629L75.4123 48.8386H73.3662L77.0224 39.2864H78.8788L82.5108 48.8386H80.4083H80.4043ZM78.3865 43.1605C78.2856 42.878 78.1928 42.6076 78.108 42.3413C78.0233 42.079 77.9547 41.853 77.9103 41.6714C77.8659 41.853 77.7973 42.079 77.7125 42.3413C77.6237 42.6036 77.5309 42.878 77.43 43.1605L76.8166 44.8958H78.9999L78.3865 43.1605Z" fill="#11B4D9"/>
<path d="M95.279 48.8386L93.5679 45.4003H91.6389V48.8386H89.7422V39.2864H94.1934C94.6373 39.2864 95.0611 39.3469 95.4606 39.468C95.8642 39.589 96.2112 39.7787 96.5099 40.0329C96.8125 40.2872 97.0466 40.606 97.2201 40.9813C97.3936 41.3566 97.4784 41.8005 97.4784 42.309C97.4784 43.0273 97.325 43.6206 97.0224 44.0766C96.7157 44.5367 96.2596 44.8877 95.6503 45.1218L97.4824 48.8345H95.279V48.8386ZM95.1539 41.4333C94.9118 41.2477 94.5768 41.1548 94.145 41.1548H91.6389V43.5964H94.145C95.057 43.5964 95.5131 43.1847 95.5131 42.3615C95.5131 41.9297 95.392 41.6189 95.1499 41.4333" fill="#11B4D9"/>
<path d="M112.273 46.2276C111.994 46.8329 111.627 47.3293 111.167 47.7127C110.707 48.1001 110.182 48.3826 109.597 48.5642C109.012 48.7458 108.411 48.8386 107.801 48.8386H104.948V39.2864H107.939C108.621 39.2864 109.25 39.3711 109.827 39.5366C110.404 39.702 110.905 39.9805 111.328 40.3639C111.752 40.7472 112.083 41.2396 112.325 41.8449C112.567 42.4503 112.688 43.1888 112.688 44.0605C112.688 44.9321 112.551 45.6182 112.273 46.2235M110.049 41.8853C109.601 41.401 108.871 41.1589 107.858 41.1589H106.845V46.9741H107.789C108.29 46.9741 108.73 46.9015 109.097 46.7643C109.468 46.623 109.771 46.4293 110.009 46.1751C110.247 45.9209 110.425 45.6142 110.542 45.259C110.659 44.8999 110.719 44.5044 110.719 44.0685C110.719 43.1 110.497 42.3736 110.049 41.8893" fill="#11B4D9"/>
<path d="M129.477 48.8386V39.2864H131.373V46.9701H136.164V48.8386H129.477Z" fill="#11B4D9"/>
<path d="M145.433 39.2864H143.536V48.8386H145.433V39.2864Z" fill="#11B4D9"/>
<path d="M158.073 48.8386H156.216L152.814 39.2864H154.929L156.733 44.8151C156.777 44.9483 156.822 45.0895 156.87 45.2388C156.915 45.3841 156.959 45.5294 156.999 45.6666C157.04 45.8079 157.076 45.9451 157.108 46.0702C157.141 46.1993 157.165 46.3002 157.181 46.3849C157.225 46.2033 157.286 45.9652 157.367 45.6747C157.443 45.3841 157.528 45.0976 157.621 44.8151L159.384 39.2864H161.475L158.077 48.8386H158.073Z" fill="#11B4D9"/>
<path d="M170.74 39.2864H168.844V48.8386H170.74V39.2864Z" fill="#11B4D9"/>
<path d="M184.853 48.8386L181.346 43.6246C181.225 43.443 181.104 43.2493 180.971 43.0435C180.838 42.8417 180.741 42.6722 180.676 42.5471C180.676 42.6399 180.676 42.7731 180.68 42.9507C180.684 43.1323 180.688 43.3219 180.688 43.5318C180.688 43.7416 180.688 43.9313 180.692 44.1331C180.696 44.3349 180.7 44.5044 180.7 44.6375V48.8426H178.804V39.2904H180.648L184.022 44.3389C184.139 44.5205 184.264 44.7142 184.397 44.92C184.53 45.1258 184.627 45.2913 184.692 45.4164C184.692 45.3276 184.692 45.1945 184.684 45.0128C184.684 44.8353 184.68 44.6456 184.68 44.4479C184.68 44.238 184.68 44.0322 184.675 43.8304C184.671 43.6327 184.667 43.4632 184.667 43.326V39.2864H186.564V48.8386H184.857H184.853Z" fill="#11B4D9"/>
<path d="M201.265 46.7925C201.071 47.2687 200.809 47.6683 200.466 47.9992C200.123 48.3261 199.719 48.5722 199.251 48.7417C198.783 48.9072 198.271 48.9919 197.718 48.9919C197.092 48.9919 196.523 48.8749 196.011 48.6449C195.502 48.4108 195.062 48.0839 194.695 47.6562C194.328 47.2284 194.041 46.7118 193.84 46.1065C193.638 45.5012 193.541 44.8191 193.541 44.0645C193.541 43.3098 193.646 42.6722 193.856 42.0669C194.066 41.4615 194.356 40.945 194.727 40.5132C195.099 40.0814 195.547 39.7424 196.067 39.5043C196.584 39.2622 197.157 39.1411 197.786 39.1411C198.279 39.1411 198.715 39.1976 199.09 39.3065C199.465 39.4195 199.8 39.5769 200.091 39.7827C200.381 39.9926 200.636 40.2468 200.849 40.5414C201.063 40.836 201.245 41.1669 201.402 41.5301L199.586 42.2808C199.493 42.1072 199.397 41.9418 199.292 41.7884C199.187 41.6351 199.066 41.5019 198.924 41.3929C198.783 41.284 198.618 41.1992 198.424 41.1347C198.23 41.0701 198.008 41.0418 197.754 41.0418C197.399 41.0418 197.08 41.1145 196.798 41.2678C196.515 41.4172 196.277 41.627 196.087 41.8974C195.898 42.1678 195.753 42.4825 195.652 42.8538C195.551 43.2211 195.502 43.6286 195.502 44.0726C195.502 44.5165 195.551 44.916 195.652 45.2913C195.753 45.6626 195.898 45.9854 196.096 46.2598C196.289 46.5343 196.531 46.7482 196.814 46.9015C197.096 47.0549 197.415 47.1315 197.77 47.1315C198.097 47.1315 198.376 47.0952 198.606 47.0226C198.832 46.9499 199.017 46.849 199.159 46.7199C199.3 46.5908 199.409 46.4374 199.485 46.2639C199.562 46.0863 199.615 45.8926 199.643 45.6828H198.129V43.9111H201.556V45.1622C201.556 45.7796 201.459 46.3285 201.269 46.8046" fill="#11B4D9"/>
<path d="M-0.09375 24.9964H3.42124V4.96376H-0.09375V0.528656H11.9V4.96376H8.385V24.9964H11.9V29.4315H-0.09375V24.9964Z" fill="#2C343B"/>
<path d="M18.748 24.9964H22.1743L23.0984 4.96376H19.4946V0.528656H27.4044L36.2786 16.6064L45.1488 0.528656H53.0141V4.96376H49.4104L50.3345 24.9964H53.7607V29.4315H41.9002V24.9964H45.3708L44.7977 10.1051L36.5409 24.6009H35.8791L27.6223 10.1051L27.0533 24.9964H30.5239V29.4315H18.748V24.9964Z" fill="#2C343B"/>
<path d="M58.7247 24.9964H61.2268L68.4343 4.91937H65.2704V0.528656H81.6105V4.91937H78.4466L85.6501 24.9964H88.1562V29.4315H77.0422V25.0408H80.3797L78.7533 20.2949H67.946L66.3197 25.0408H69.8347V29.4315H58.7207V24.9964H58.7247ZM77.3933 16.1665L73.3537 4.78619L69.3141 16.1665H77.3974H77.3933Z" fill="#2C343B"/>
<path d="M91.7725 15.0689C91.7725 6.15022 98.5361 0 106.97 0C113.69 0 118.173 3.51499 118.173 6.98559C118.173 9.0962 116.813 10.545 115.009 10.545C113.032 10.545 111.668 9.31412 111.668 7.42547C111.668 6.85241 111.801 6.2834 111.975 5.9323C111.139 5.27047 109.473 4.61267 106.833 4.61267C101.212 4.61267 96.9057 8.78545 96.9057 15.0245C96.9057 21.2635 101.518 25.4806 106.397 25.4806C109.428 25.4806 111.539 24.8228 113.383 23.6364V18.6726H106.179V14.4554H118.258V29.4355H113.516V27.2845C111.494 28.8665 108.903 29.9642 105.655 29.9642C98.5361 29.9642 91.7725 24.3426 91.7725 15.0729" fill="#2C343B"/>
<path d="M126.091 24.9964H129.606V4.96376H126.091V0.528656H138.085V4.96376H134.57V24.9964H138.085V29.4315H126.091V24.9964Z" fill="#2C343B"/>
<path d="M153.283 9.48764V24.9964H156.887V29.4315H145.155V24.9964H148.452V4.96376H145.155V0.528656H152.665L166.899 18.6686V4.96376H163.299V0.528656H174.897V4.96376H171.734V29.4759L169.054 29.5646L153.283 9.48764Z" fill="#2C343B"/>
<path d="M180.07 24.9964H183.367V4.96376H180.07V0.528656H201.64V8.78545H196.899V4.91937H188.331V12.6515H197.072V16.8687H188.331V25.0408H196.939V21.1747H201.685V29.4315H180.07V24.9964Z" fill="#2C343B"/>
</svg>
