<?xml version="1.0" encoding="UTF-8"?> <svg xmlns="http://www.w3.org/2000/svg" version="1.1" viewBox="0 0 1920 1080"><defs><style> .cls-1 { fill-rule: evenodd; } .cls-1, .cls-2, .cls-3 { fill: #fff; } .cls-2 { stroke: #fff; stroke-miterlimit: 10; stroke-width: 1.9px; } .cls-4 { fill: #b42024; } .cls-5 { display: none; } </style></defs><g><g id="Layer_1" class="cls-5"><rect class="cls-4" x="-14.3" y="1.5" width="1938.5" height="1080.5"></rect></g><g id="Layer_1_copy" class="cls-5"><g><rect x="-5.4" y=".2" width="1937.5" height="1079.4"></rect><path class="cls-3" d="M1931.6.8v1078.3H-4.8V.8h1936.4M1932.6-.3H-5.9v1080.5h1938.5V-.3h0Z"></path></g></g><g id="Layer_3_copy_14"><g><path class="cls-3" d="M273.3,575.7h.8l-5.2,26.1h-78.3v-.8l7.2-3.8c3-1.5,3.3-2.1,4.5-7,3-12,11.4-58.2,11.4-63.2s-1.7-5.2-10.6-8.8v-.8h47.4v.8c-11.1,4.6-12,6.3-14.5,21l-9,54.6h28.5c3.7,0,5.5-1.4,10.1-7.7l7.6-10.3Z"></path><path class="cls-3" d="M357.1,517.3h32.3v.8c-10.6,4.5-11.7,5.6-13.4,14.2l-7.4,39.4c-3.6,19.1-17.9,31.9-43.2,31.9s-35.3-10.4-35.3-24.8,7.5-40.2,7.5-51.5-1.1-6-7.5-8.3l-3-.9v-.8h49.7v.8l-5.3,2.1c-6.9,2.7-8.1,6.9-8.8,10.6-2.8,14.8-7.5,38.3-7.5,46.4s4.7,17.7,17.1,17.7,23.7-3.4,28-25c3-15.2,7.4-38.5,7.4-42.9s-1.7-5.2-10.6-8.8v-.8Z"></path><path class="cls-3" d="M458.3,517.3h32.6v.8c-9.8,4.5-12,6.2-18.3,11.9l-25.5,23.2,24.1,41.3c.8,1.5,2.5,3.2,4.6,4.3l3.9,2.1v.8h-50.8v-.8l3.1-1.2c9.6-3.7,10.2-4.7,10.2-6.2s-.7-2.3-1.4-3.6l-13.3-23.1-24.9,23.2c-2.1,2.1-2.8,3.2-2.8,4.5s.6,2.6,5.6,4.9l3.1,1.4v.8h-33.8v-.8c6.5-2.3,10.1-4.5,17.6-11.4l31.4-29.2-20.3-34.6c-.8-1.3-3.8-4.2-7.7-6l-3.2-1.5v-.8h51.7v.8l-4.7,1.7c-6.9,2.6-7.6,4.2-7.6,6.3s.5,2,1.5,3.9l10,16.8,19.3-18.1c2.8-2.6,4-4,4-5.2s-.8-1.8-3.1-2.8l-5.3-2.5v-.8Z"></path><path class="cls-3" d="M561.3,517.3h32.3v.8c-10.6,4.5-11.7,5.6-13.4,14.2l-7.4,39.4c-3.6,19.1-17.9,31.9-43.2,31.9s-35.3-10.4-35.3-24.8,7.5-40.2,7.5-51.5-1.1-6-7.5-8.3l-3-.9v-.8h49.7v.8l-5.3,2.1c-6.9,2.7-8.1,6.9-8.8,10.6-2.8,14.8-7.5,38.3-7.5,46.4s4.7,17.7,17.1,17.7,23.7-3.4,28-25c3-15.2,7.4-38.5,7.4-42.9s-1.7-5.2-10.6-8.8v-.8Z"></path><path class="cls-3" d="M649,517.3c20.4,0,28.7,5.9,28.7,18.9s-7.8,19.3-26.2,21.2v.7c11.5,1.1,15.4,5.3,16.1,13.6l1.7,20.2c.4,3.9.6,5.5,7,9v.8h-24.2c-5.7,0-6.8-3.4-7.2-9.6l-1.7-20.3c-.7-8.3-2.8-10.3-13-10.4h-5.3l-3.1,17.8c-.8,4.9-1.4,10-1.4,12.9s1.7,5.2,10.6,8.8v.8h-47.2v-.8l7.2-3.8c3-1.5,3.3-2.1,4.5-7,3-12,11.4-58.2,11.4-63.2s-1.7-5.2-10.6-8.8v-.8h52.8ZM630.3,554.1c5.9,0,11.3-.5,14.9-2.6,6.4-3.7,7.9-9.4,7.9-14.3,0-8.8-7-12.5-15.3-12.5h-6.8l-5.1,29.4h4.3Z"></path><path class="cls-3" d="M755.5,528.7c1.1-1.5,2.3-3.2,2.3-4.9s-1.2-2.4-3.3-3.3l-5.6-2.4v-.8h30v.8l-5.1,2.4c-4.3,2-8.7,8.1-10.3,10.4l-27.8,39.7-3.2,17.2c-.2,1.3-.4,2.8-.4,3.9,0,2.6,1.4,5,5.6,6.9l4.9,2.3v.8h-47.2v-.8l4.4-1.9c4.7-2,6.8-4.9,8.1-11.7l3.1-16.6-19.4-43.8c-1.3-2.8-3.1-5.8-5.5-7l-3.4-1.8v-.8h48.4v.8l-7.7,3.1c-3.8,1.5-4.6,3.6-4.6,5s.1,2.8,2.5,8.5l11.5,26.9,22.9-33Z"></path><path class="cls-3" d="M807.6,600.9l7.2-3.8c3-1.5,3.3-2.1,4.5-7,3-12,11.4-58.2,11.4-63.2s-1.7-5.2-10.6-8.8v-.8h54.2c20.6,0,28.5,8.8,28.5,19.9s-6.8,27.3-38.8,27.3h-15.3c-2.4,13.3-4.3,25.3-4.3,27.6,0,3.9,1.7,5.2,10.6,8.8v.8h-47.4v-.8ZM858,557.2c12.6,0,19.7-9.1,19.7-17.9s-3.9-14.6-13.8-14.6h-8.1l-5.9,32.5h8.1Z"></path><path class="cls-3" d="M965.8,515.4c37,0,42.1,23.6,42.1,34.9,0,31.4-22.9,53.4-56.9,53.4s-42.1-23.6-42.1-34.9c0-31.4,22.9-53.4,56.9-53.4ZM965.1,522.8c-24.5,0-30.4,34-30.4,53.5s5.7,20,17,20c24.5,0,30.4-34,30.4-53.5s-5.7-20-17-20Z"></path><path class="cls-3" d="M1075.6,515.4c37,0,42.1,23.6,42.1,34.9,0,31.4-22.9,53.4-56.9,53.4s-42.1-23.6-42.1-34.9c0-31.4,22.9-53.4,56.9-53.4ZM1074.9,522.8c-24.5,0-30.4,34-30.4,53.5s5.7,20,17,20c24.5,0,30.4-34,30.4-53.5s-5.7-20-17-20Z"></path><path class="cls-3" d="M1202.2,575.7h.8l-5.2,26.1h-78.3v-.8l7.2-3.8c3-1.5,3.3-2.1,4.5-7,3-12,11.4-58.2,11.4-63.2s-1.7-5.2-10.6-8.8v-.8h47.4v.8c-11.1,4.6-12,6.3-14.5,21l-9,54.6h28.5c3.7,0,5.5-1.4,10.1-7.7l7.6-10.3Z"></path><path class="cls-3" d="M1213.3,577h.8c3.8,14.5,10.8,19.3,25.6,19.3s19-4.6,19-14.2-4.5-8.9-11.3-11.6l-12.1-5c-11.7-4.9-17.8-12.3-17.8-20,0-19.3,19.9-30,40.7-30s10.4.8,14.2,1.7c3.9.8,6.6,1.7,7.8,1.7s2.3-.6,4.9-3.3h.8l-3.9,23.5h-.8c-3.3-12.9-13.3-16.1-23-16.1s-17.7,3.6-17.7,13.9,3.6,8.4,13.3,12.3l13.9,5.6c7.8,3.1,14,7.5,14,18.6s-7.8,30.5-43.5,30.5-19-3.4-23.2-3.4-3.9,1.4-5.5,3.4h-.8l4.6-26.7Z"></path></g><path class="cls-1" d="M1654.2,518.2h85.9l-8.2,31.4h-2.4l-7.4,28.6h-32.3l-7.5,29h-193.2l23.1-89h67l-.6,16.5,8-16.5h67.5ZM1592.6,601.7h31.9l20.3-77.9h-52.4l-22.5,46.4h-.3l1.6-46.4h-52.4l-20.3,77.9h31.9l14.5-55.7h.3l-1,55.7h34.6l27.9-55.7h.3l-14.5,55.7h0ZM1638,601.7h37.7l7.5-29h32.3l5.3-20.3h-32.3l2.2-8.3h34.7l5.3-20.3h-72.5l-20.3,77.9h0Z"></path><g><path class="cls-2" d="M1321.1,600.5c0-.3-.1-.6-.1-.9,0-8.2,25.2-15.5,25.8-15.7,1.1-3.1,2.3-5.8,3.5-8.6,3.8-8.4,8.3-16.4,13.4-24.1,8.1-11.9,17.5-23.5,28.7-31.4,2.9-2.1,4.4-3.3,5.9-3.3s1.4.2,2.2.7c.4.3.6.5.6.6,0,.6-1.7,1.3-2.2,1.9-18.1,13.2-33.6,36.2-40.6,50.8,4.7-1.3,9.7-1.8,14.5-2.9,21.8-7.5,59.3-28.4,59.3-47.4s-6.8-13.1-16.8-13.1-14.5,1.9-19,3.3c-15.4,4.7-41.9,21.6-48,34.6-.1.7-.5,1.1-1.2,1.1h-.2c-1.8-.2-2.6-1-2.6-2.2,0-6,21-22.6,23.4-23.6,13.2-8.8,28.9-15.6,44.7-15.4,11.7-.3,24.6,4.7,24.6,16.1,0,19.9-36.7,40.4-56.9,46.4,16.2,2,22.3,7.5,22.3,13.8s-8.6,15.8-18.8,20.9c-7.2,3.8-24.5,8.2-39.2,8.2s-21-2.6-23.4-10ZM1379.3,600.5c11.3-5.6,18.6-13.9,18.6-20.6s-5.8-10.3-19.7-10.2c-4.9-.2-9.4,1.8-14.2,3.1-5,1.2-6.7,1.1-8.1,1.9-.9,1.7-1.6,4.4-3,7.4,4.3-.3,9.1-1.4,13.8-1.4s1.9,0,2.8.1c-5.5.6-11.6,1-17,2.9-1.1,1.5-1.9,4.7-1.9,5.5,1-1.1,1.5-1.5,1.8-1.5s-.4,1.3-.8,2.8c-1,2.9-1.6,5.6-2.5,7.2-.7,1.3-1.2,1.4-1.6,1.4h-.3c-2.2,0-2.8-1.7-2.8-4s1.1-6.6,1.4-8.9c-2.3.5-5.4,2.2-6,2.2-5.4,2.4-14.7,7.1-15.2,11.3,0,.3,0,.6,0,.9,0,4.1,4.9,6.4,8.6,7.2,2.9.7,6.1.9,9.5.9,13.3,0,29.3-4.4,36.6-8.1Z"></path><path class="cls-2" d="M1392.3,639.5c-1.4-15,24.4-34.1,42.1-42.5,5-10.8,9.4-21.2,12.2-28.6-15,12.4-19.6,17.2-22.5,17.2s-2.4-.5-3.6-1.3c-.7-.5-.9-1.2-.9-1.9,0-4.9,4.3-14.5,8.1-19.7.4-.6.8-1.1,1.7-1,1,.1,1.9.4,2.6,1.2.3.3.2.6,0,.9-.3.6-6,10.8-7.7,17.9-.3,1.2,0,1.6,1.2.9,4.4-2.6,15.2-12.2,20.9-17.1,1.3-1.1,2.4-1.1,3.8-.3.8.4,1.1.9,1.1,1.8,0,1-.2,2.1-.5,3.1-1.6,6-6,14.9-8.3,20.2l-1.5,3.7c6.1-3.1,14.3-7.4,16.7-9.6,1.9-1.7.3,1.5-2.3,3.2-2,1.3-10.5,6.1-15.4,8.8-8.6,19.5-16.4,32.2-20.4,38.1-4.2,6.6-10.8,13.8-18.7,13.8s-8.2-3.3-8.7-8.7ZM1433.5,599.1c-26.2,14.3-38.2,31.6-37.7,41,.1,3.3.6,6.2,4,6.2,9.1,0,22.8-24.1,33.7-47.2Z"></path></g></g></g></svg> 